<?xml version="1.0" encoding="UTF-8" standalone="no"?>
<svg
   xmlns:dc="http://purl.org/dc/elements/1.1/"
   xmlns:cc="http://creativecommons.org/ns#"
   xmlns:rdf="http://www.w3.org/1999/02/22-rdf-syntax-ns#"
   xmlns:svg="http://www.w3.org/2000/svg"
   xmlns="http://www.w3.org/2000/svg"
   xmlns:sodipodi="http://sodipodi.sourceforge.net/DTD/sodipodi-0.dtd"
   xmlns:inkscape="http://www.inkscape.org/namespaces/inkscape"
   height="509.72937"
   id="svg2"
   version="1.1"
   inkscape:version="0.48.2 r9819"
   width="494.46054"
   sodipodi:docname="tiger.svg">
  <metadata
     id="metadata970">
    <rdf:RDF>
      <cc:Work
         rdf:about="">
        <dc:format>image/svg+xml</dc:format>
        <dc:type
           rdf:resource="http://purl.org/dc/dcmitype/StillImage" />
        <dc:title></dc:title>
      </cc:Work>
    </rdf:RDF>
  </metadata>
  <defs
     id="defs968" />
  <sodipodi:namedview
     pagecolor="#ffffff"
     bordercolor="#666666"
     borderopacity="1"
     objecttolerance="10"
     gridtolerance="10"
     guidetolerance="10"
     inkscape:pageopacity="0"
     inkscape:pageshadow="2"
     inkscape:window-width="1280"
     inkscape:window-height="776"
     id="namedview966"
     showgrid="false"
     inkscape:zoom="0.89152244"
     inkscape:cx="356.06024"
     inkscape:cy="165.301"
     inkscape:window-x="0"
     inkscape:window-y="24"
     inkscape:window-maximized="1"
     inkscape:current-layer="svg2"
     fit-margin-top="0"
     fit-margin-left="0"
     fit-margin-right="0"
     fit-margin-bottom="0" />
  <path
     style="fill:#ffffff;fill-opacity:1;stroke:#000000;stroke-width:0.17200001"
     d="m 61.709,228.71338 c 0,0 0.101,1.894 -0.723,1.875 -0.824,-0.019 -17.278,-48.094 -37.806,-45.851 0,0 17.783,-7.353 38.529,43.976 z"
     id="path8"
     inkscape:connector-curvature="0" />
  <path
     style="fill:#ffffff;fill-opacity:1;stroke:#000000;stroke-width:0.17200001"
     d="m 65.239,225.69038 c 0,0 -0.549,1.816 -1.318,1.517 -0.768,-0.298 0.115,-51.104 -19.951,-55.978 0,0 19.223,-0.864 21.269,54.461 z"
     id="path12"
     inkscape:connector-curvature="0" />
  <path
     style="fill:#ffffff;fill-opacity:1;stroke:#000000;stroke-width:0.17200001"
     d="m 92.729,268.01838 c 0,0 1.636,0.96 1.166,1.637 -0.471,0.677 -49.645,-12.125 -59.1,6.232 0,0 3.679,-18.887 57.934,-7.869 z"
     id="path16"
     inkscape:connector-curvature="0" />
  <path
     style="fill:#ffffff;fill-opacity:1;stroke:#000000;stroke-width:0.17200001"
     d="m 89.92,278.22938 c 0,0 1.856,0.396 1.622,1.187 -0.233,0.791 -50.936,4.133 -54.126,24.534 0,0 -2.458,-19.085 52.504,-25.721 z"
     id="path20"
     inkscape:connector-curvature="0" />
  <path
     style="fill:#ffffff;fill-opacity:1;stroke:#000000;stroke-width:0.17200001"
     d="m 85.709,272.70438 c 0,0 1.778,0.663 1.432,1.411 -0.346,0.748 -50.994,-3.341 -57.126,16.377 0,0 0.352,-19.239 55.694,-17.788 z"
     id="path24"
     inkscape:connector-curvature="0" />
  <path
     style="fill:#ffffff;fill-opacity:1;stroke:#000000;stroke-width:0.17200001"
     d="m 75.004,254.50038 c 0,0 1.308,1.374 0.669,1.895 -0.639,0.521 -44.382,-25.333 -58.529,-10.291 0,0 8.741,-17.143 57.86,8.396 z"
     id="path28"
     inkscape:connector-curvature="0" />
  <path
     style="fill:#ffffff;fill-opacity:1;stroke:#000000;stroke-width:0.17200001"
     d="m 67.459,258.69138 c 0,0 1.456,1.217 0.88,1.808 -0.576,0.59 -46.964,-20.149 -59.318,-3.602 0,0 6.745,-18.022 58.438,1.794 z"
     id="path32"
     inkscape:connector-curvature="0" />
  <path
     style="fill:#ffffff;fill-opacity:1;stroke:#000000;stroke-width:0.17200001"
     d="m 64.859,262.76338 c 0,0 1.608,1.008 1.118,1.671 -0.49,0.663 -49.272,-13.56 -59.255,4.516 0,0 4.225,-18.773 58.137,-6.187 z"
     id="path36"
     inkscape:connector-curvature="0" />
  <path
     style="fill:#ffffff;fill-opacity:1;stroke:#000000;stroke-width:0.17200001"
     d="m 75.593,263.37738 c 0,0 1.122,1.531 0.421,1.966 -0.701,0.435 -40.77,-30.813 -56.728,-17.708 0,0 10.865,-15.881 56.307,15.742 z"
     id="path40"
     inkscape:connector-curvature="0" />
  <path
     style="fill:#ffffff;fill-opacity:1;stroke:#000000;stroke-width:0.17200001"
     d="m 55.813,234.42838 c 0,0 0.6,1.8 -0.2,2 -0.8,0.2 -29.4,-41.8 -48.601,-34.2 0,0 15.201,-11.8 48.801,32.2 z"
     id="path44"
     inkscape:connector-curvature="0" />
  <path
     style="fill:#ffffff;fill-opacity:1;stroke:#000000;stroke-width:0.17200001"
     d="m 56.508,241.40738 c 0,0 0.975,1.629 0.236,1.996 -0.738,0.368 -37.723,-34.476 -54.832,-22.914 0,0 12.297,-14.8 54.596,20.918 z"
     id="path48"
     inkscape:connector-curvature="0" />
  <path
     style="fill:#ffffff;fill-opacity:1;stroke:#000000;stroke-width:0.17200001"
     d="m 56.393,245.77738 c 0,0 1.122,1.531 0.421,1.966 -0.701,0.434 -40.77,-30.813 -56.728,-17.708 0,0 10.865,-15.881 56.307,15.742 z"
     id="path52"
     inkscape:connector-curvature="0" />
  <path
     style="fill:#ffffff;fill-opacity:1;stroke:#000000"
     d="m 54.183,247.49338 c 0.503,6.048 1.491,12.617 3.23,15.736 0,0 -3.6,12.4 5.2,25.6 0,0 -0.4,7.2 1.2,10.4 0,0 4,8.4 8.8,9.2 3.884,0.647 12.607,3.716 22.468,5.12 0,0 17.132,14.08 13.932,26.88 0,0 -0.4,16.4 -4,18 0,0 11.6,-11.2 2,5.6 l -4.4,18.8 c 0,0 25.6,-21.6 10,-3.2 l -10,26 c 0,0 19.6,-18.4 12.4,-10 l -3.2,8.8 c 0,0 43.2,-27.2 12.4,2.4 0,0 8,-3.6 12.4,-0.8 0,0 6.8,-1.2 6,0.4 0,0 -20.8,10.4 -24.4,28.8 0,0 8.4,-10 5.2,0.8 l 0.4,11.6 c 0,0 4,-21.6 3.6,16 0,0 19.2,-18 7.6,2.8 l 0,16.8 c 0,0 15.2,-16.4 8.8,-3.6 0,0 10,-8.8 6,6.4 0,0 -0.8,10.4 3.6,-0.8 0,0 16,-30.6 10,-4.4 0,0 -0.8,19.2 4,4.4 0,0 0.4,10.4 9.6,17.6 0,0 -1.2,-50.8 11.6,-14.8 l 4,16.4 c 0,0 2.8,-9.2 2.4,-14.4 0,0 14.8,-16.4 8,8 0,0 15.2,-22.8 12,-9.6 0,0 -7.6,16 -6,20.8 0,0 16.8,-34.8 18,-36.4 0,0 -2,42.401 8.8,6.4 0,0 5.6,12 2.8,16.4 0,0 8,-8 7.2,-11.2 0,0 4.6,-8.2 7.4,5.4 0,0 1.8,9.4 3.4,6.2 0,0 4,24.001 5.2,1.2 0,0 1.6,-13.6 -5.6,-25.2 0,0 0.8,-3.2 -2,-7.2 0,0 13.6,21.6 6.4,-7.2 0,0 11.201,8 12.401,8 0,0 -13.601,-23.2 -4.801,-18.4 0,0 -5.2,-10.4 12.801,1.6 0,0 -16.001,-16 1.6,-6.4 0,0 8,6.4 0.4,-3.6 0,0 -14.401,-16 7.6,2 0,0 11.6,16.4 12.4,19.2 0,0 -10,-29.2 -14.4,-32 0,0 8.4,-36.4 49.6,-20.8 0,0 6.8,17.2 11.2,-1.2 0,0 12.8,-6.4 24,21.2 0,0 4,-13.6 3.2,-16.4 0,0 6.8,1.2 6,0 0,0 13.2,4.4 14.4,3.6 0,0 6.8,6.8 7.2,3.2 0,0 9.2,2.8 7.2,-0.8 0,0 8.8,15.6 9.2,19.2 l 2.4,-14 2,2.8 c 0,0 1.6,-7.6 0.8,-8.8 -0.8,-1.2 20,6.8 24.8,27.6 l 2,8.4 c 0,0 6,-14.8 4.4,-18.8 0,0 5.2,0.8 5.6,5.2 0,0 4,-23.2 -0.8,-29.2 0,0 4.4,-0.8 5.6,2.8 l 0,-7.2 c 0,0 7.2,0.8 7.2,-1.6 0,0 4.4,-4 6.4,0.8 0,0 -12.4,-35.2 6,-16 0,0 7.2,10.8 3.6,-8 -3.6,-18.8 -7.6,-20.4 -2.8,-20.8 0,0 0.8,-3.6 -1.2,-5.2 -2,-1.6 1.2,0 1.2,0 0,0 4.8,4 -0.4,-18 0,0 6.4,1.6 -5.6,-27.6 0,0 2.8,-2.4 -1.2,-10.8 0,0 8,4.4 10.8,2.8 0,0 -0.4,-1.6 -3.6,-5.6 0,0 -21.6,-54.801 -1.2,-32.8 0,0 11.85,13.55 5.45,-9.25 0,0 -9.111,-24.01 -8.334,-28.306 l -429.547,23.02 z"
     id="path56"
     inkscape:connector-curvature="0" />
  <path
     style="fill:#cc7226;fill-opacity:1;stroke:#000000"
     d="m 483.73,224.67338 c 0.628,0.181 2.834,1.305 4.084,2.955 0,0 6.8,10.8 1.6,-7.6 0,0 -9.2,-28.8 -0.4,-17.6 0,0 6,7.2 2.8,-6.4 -3.865,-16.427 -6.4,-22.8 -6.4,-22.8 0,0 11.6,4.8 -15.2,-34.8 l 8.8,3.6 c 0,0 -19.6,-39.6 -41.2,-44.800002 l -8,-6 c 0,0 38.4,-38 25.6,-74.8 0,0 -6.8,-5.2 -16.4,4 0,0 -6.4,4.8 -12.4,3.2 0,0 -30.8,1.2 -32.8,1.2 -2,0 -36.8,-37.2 -102.4,-19.5999999 0,0 -5.2,2 -9.6,0.8 0,0 -18.401,-16 -67.201,6.7999999 0,0 -10,2 -11.6,2 -1.6,0 -4.4,0 -12.4,6.4 -8,6.4 -8.4,7.2 -10.4,8.8 0,0 -16.4,11.2 -21.2,12 0,0 -11.6,6.4 -16,16.4 l -3.6,1.2 c 0,0 -1.6,7.2 -2,8.4 0,0 -4.8,3.6 -5.6,9.2 0,0 -8.8,6 -8.4,10.4 0,0 -1.6,5.2 -2.4,10 0,0 -7.2,4.800002 -6.4,7.600002 0,0 -7.6,14 -6.4,20.8 0,0 -6.4,-0.4 -9.2,2 0,0 -0.8,4.8 -2.4,5.2 0,0 -2.8,1.2 -0.4,5.2 0,0 -1.6,2.8 -2,4.4 0,0 0.8,2.8 -3.6,8.4 0,0 -6.4,18.8 -4.4,24 0,0 0.4,4.8 -2.4,6.4 0,0 -3.6,-0.4 4.8,11.6 0,0 0.8,1.2 -2.4,3.6 0,0 -17.2,3.6 -19.6,20 0,0 -13.6,14.8 -13.6,20 0,2.305 0.271,5.452 0.97,10.065 0,0 -0.57,8.336 27.03,9.136 27.6,0.8 402.717,-31.356 402.717,-31.356 z"
     id="path60"
     inkscape:connector-curvature="0" />
  <path
     style="fill:#cc7226;fill-opacity:1"
     d="m 68.413,247.02838 c -25,-39.4 -10.6,17.001 -10.6,17.001 8.8,34.4 138.4,-3.2 138.4,-3.2 0,0 168.801,-30.401 180.001,-34.401 11.2,-4 106.4,2.4 106.4,2.4 l -5.6,-16.8 c -64.8,-46.4 -84,-23.2 -97.6,-27.2 -13.6,-4 -11.2,5.6 -14.4,6.4 -3.2,0.8 -42.4,-24 -48.8,-23.2 -6.4,0.8 -31.742,-22.951 -16.8,8.8 16,34 -58.401,39.2 -75.201,28 -16.8,-11.2 7.2,18.4 7.2,18.4 18.4,20 -16,3.2 -16,3.2 -34.4,-12.8 -58.4,12.8 -61.6,13.6 -3.2,0.8 -8,4 -8.8,-2.4 -0.8,-6.4 -8.31,-23.101 -40,3.2 -20,16.601 -33.8,-5.4 -33.8,-5.4 l -2.8,11.6 z"
     id="path64"
     inkscape:connector-curvature="0" />
  <path
     style="fill:#e87f3a;fill-opacity:1"
     d="m 317.523,169.77438 c -6.4,0.8 -31.767,-22.939 -16.8,8.8 16.6,35.2 -58.4,39.2 -75.2,28 -16.801,-11.2 7.2,18.4 7.2,18.4 18.4,20 -16.001,3.2 -16.001,3.2 -34.4,-12.8 -58.4,12.8 -61.6,13.6 -3.2,0.8 -8,4 -8.8,-2.4 -0.8,-6.4 -8.179,-22.934 -40,3.2 -21.236,17.346 -34.727,-4.109 -34.727,-4.109 l -3.2,10.109 c -25,-39.8 -9.928,18.509 -9.928,18.509 8.801,34.401 139.055,-4.509 139.055,-4.509 0,0 168.801,-30.4 180.001,-34.4 11.2,-4 105.528,2.327 105.528,2.327 l -5.528,-17.309 c -64.8,-46.4 -83.2,-22.618 -96.8,-26.618 -13.6,-4 -11.2,5.6 -14.4,6.4 -3.2,0.8 -42.4,-24 -48.8,-23.2 z"
     id="path68"
     inkscape:connector-curvature="0" />
  <path
     style="fill:#ea8c4d;fill-opacity:1"
     d="m 318.832,171.51938 c -6.4,0.8 -31.134,-23.229 -16.8,8.8 16.2,36.201 -58.4,39.201 -75.2,28.001 -16.8,-11.2 7.2,18.4 7.2,18.4 18.4,20 -16,3.2 -16,3.2 -34.4,-12.8 -58.401,12.8 -61.601,13.6 -3.2,0.8 -8,4 -8.8,-2.4 -0.8,-6.4 -8.048,-22.767 -40,3.2 -22.473,18.091 -35.654,-2.818 -35.654,-2.818 l -3.6,8.618 c -23.8,-39 -9.255,20.018 -9.255,20.018 8.8,34.4 139.71,-5.818 139.71,-5.818 0,0 168.8,-30.4 180,-34.4 11.2,-4 104.655,2.254 104.655,2.254 l -5.454,-17.818 c -64.801,-46.4 -82.401,-22.037 -96.001,-26.037 -13.6,-4 -11.2,5.6 -14.4,6.401 -3.2,0.8 -42.4,-24.001 -48.8,-23.201 z"
     id="path72"
     inkscape:connector-curvature="0" />
  <path
     style="fill:#ec9961;fill-opacity:1"
     d="m 320.141,173.26538 c -6.4,0.8 -31.129,-23.232 -16.8,8.8 16.8,37.556 -58.934,38.845 -75.2,28 -16.8,-11.2 7.2,18.4 7.2,18.4 18.4,20 -16,3.2 -16,3.2 -34.4,-12.8 -58.4,12.8 -61.6,13.6 -3.2,0.8 -8,4 -8.8,-2.4 -0.8,-6.4 -7.917,-22.598 -40.001,3.2 -23.709,18.837 -36.582,-1.527 -36.582,-1.527 l -4,7.127 c -21.8,-36.8 -8.581,21.528 -8.581,21.528 8.8,34.4 140.364,-7.128 140.364,-7.128 0,0 168.8,-30.4 180.001,-34.4 11.2,-4 103.782,2.182 103.782,2.182 l -5.382,-18.327 c -64.8,-46.401 -81.6,-21.455 -95.2,-25.455 -13.601,-4 -11.201,5.6 -14.401,6.4 -3.2,0.8 -42.4,-24 -48.8,-23.2 z"
     id="path76"
     inkscape:connector-curvature="0" />
  <path
     style="fill:#eea575;fill-opacity:1"
     d="m 321.451,175.01138 c -6.401,0.8 -30.624,-23.454 -16.801,8.8 16.801,39.2 -58.4,39.2 -75.2,28 -16.8,-11.2 7.2,18.4 7.2,18.4 18.4,20 -16,3.2 -16,3.2 -34.4,-12.8 -58.4,12.8 -61.6,13.6 -3.2,0.8 -8,4 -8.8,-2.4 -0.8,-6.4 -7.785,-22.431 -40,3.2 -24.946,19.582 -37.51,-0.237 -37.51,-0.237 l -4.4,5.637 c -19.8,-34.801 -7.909,23.036 -7.909,23.036 8.8,34.401 141.019,-8.436 141.019,-8.436 0,0 168.801,-30.4 180.001,-34.4 11.2,-4 102.909,2.109 102.909,2.109 l -5.309,-18.837 c -64.8,-46.4 -80.8,-20.872 -94.4,-24.872 -13.6,-4 -11.2,5.6 -14.4,6.4 -3.2,0.8 -42.4,-24 -48.8,-23.2 z"
     id="path80"
     inkscape:connector-curvature="0" />
  <path
     style="fill:#f1b288;fill-opacity:1"
     d="m 322.76,176.75638 c -6.4,0.8 -32.364,-22.651 -16.8,8.8 19.2,38.8 -58.401,39.2 -75.201,28 -16.8,-11.2 7.2,18.4 7.2,18.4 18.4,20 -16,3.2 -16,3.2 -34.4,-12.8 -58.4,12.8 -61.6,13.6 -3.2,0.8 -8,4 -8.8,-2.4 -0.8,-6.4 -7.654,-22.263 -40,3.2 -26.182,20.328 -38.437,1.055 -38.437,1.055 l -4.8,4.145 c -18,-33.2 -7.236,24.546 -7.236,24.546 8.8,34.4 141.673,-9.746 141.673,-9.746 0,0 168.801,-30.4 180.001,-34.4 11.2,-4 102.036,2.036 102.036,2.036 l -5.236,-19.345 c -64.8,-46.4 -80,-20.291 -93.6,-24.291 -13.6,-4 -11.2,5.6 -14.4,6.4 -3.2,0.8 -42.4,-24 -48.8,-23.2 z"
     id="path84"
     inkscape:connector-curvature="0" />
  <path
     style="fill:#f3bf9c;fill-opacity:1"
     d="m 324.069,178.50138 c -6.401,0.8 -32.743,-22.46 -16.801,8.8 20.401,40.001 -58.4,39.201 -75.2,28.001 -16.8,-11.2 7.2,18.4 7.2,18.4 18.4,20 -16,3.2 -16,3.2 -34.4,-12.8 -58.4,12.8 -61.6,13.6 -3.2,0.8 -8,4 -8.8,-2.4 -0.8,-6.4 -7.523,-22.096 -40,3.2 -27.419,21.073 -39.364,2.345 -39.364,2.345 l -5.2,2.655 c -16,-30.2 -6.564,26.055 -6.564,26.055 8.8,34.4 142.328,-11.055 142.328,-11.055 0,0 168.801,-30.4 180.001,-34.4 11.2,-4 101.164,1.963 101.164,1.963 l -5.164,-19.854 c -64.8,-46.4 -79.2,-19.709 -92.8,-23.709 -13.6,-4.001 -11.2,5.6 -14.4,6.4 -3.2,0.8 -42.4,-24.001 -48.8,-23.201 z"
     id="path88"
     inkscape:connector-curvature="0" />
  <path
     style="fill:#f5ccb0;fill-opacity:1"
     d="m 325.378,180.24738 c -6.4,0.8 -33.842,-21.875 -16.8,8.8 22,39.6 -58.401,39.2 -75.201,28 -16.8,-11.2 7.2,18.4 7.2,18.4 18.4,20 -16,3.2 -16,3.2 -34.4,-12.8 -58.4,12.8 -61.6,13.6 -3.2,0.8 -8,4 -8.8,-2.4 -0.8,-6.4 -7.391,-21.927 -40,3.2 -28.655,21.819 -40.291,3.637 -40.291,3.637 l -5.6,1.163 c -14.401,-28.4 -5.891,27.564 -5.891,27.564 8.8,34.401 142.982,-12.364 142.982,-12.364 0,0 168.801,-30.4 180.001,-34.4 11.2,-4 100.291,1.891 100.291,1.891 l -5.091,-20.364 c -64.8,-46.4 -78.4,-19.127 -92,-23.127 -13.6,-4 -11.2,5.6 -14.4,6.4 -3.2,0.8 -42.4,-24 -48.8,-23.2 z"
     id="path92"
     inkscape:connector-curvature="0" />
  <path
     style="fill:#f8d8c4;fill-opacity:1"
     d="m 326.687,181.99338 c -6.4,0.8 -33.842,-21.876 -16.8,8.8 22,39.6 -58.4,39.2 -75.2,28 -16.8,-11.2 7.2,18.4 7.2,18.4 18.4,20 -16,3.2 -16,3.2 -34.401,-12.8 -58.401,12.8 -61.601,13.6 -3.2,0.8 -8,4 -8.8,-2.4 -0.8,-6.4 -7.259,-21.76 -40,3.2 -29.891,22.564 -41.218,4.928 -41.218,4.928 l -6,-0.328 c -13.601,-26.401 -5.218,29.073 -5.218,29.073 8.8,34.4 143.636,-13.673 143.636,-13.673 0,0 168.801,-30.4 180.001,-34.4 11.2,-4 99.419,1.818 99.419,1.818 l -5.018,-20.873 c -64.801,-46.4 -77.601,-18.545 -91.201,-22.545 -13.6,-4 -11.2,5.6 -14.4,6.4 -3.2,0.8 -42.4,-24 -48.8,-23.2 z"
     id="path96"
     inkscape:connector-curvature="0" />
  <path
     style="fill:#fae5d7;fill-opacity:1"
     d="m 327.996,183.73838 c -6.4,0.8 -33.454,-22.087 -16.8,8.8 22,40.8 -58.4,39.2 -75.2,28 -16.8,-11.2 7.2,18.4 7.2,18.4 18.4,20 -16,3.2 -16,3.2 -34.4,-12.8 -58.4,12.8 -61.6,13.6 -3.201,0.8 -8.001,4 -8.801,-2.4 -0.8,-6.4 -7.128,-21.592 -40,3.2 -31.127,23.31 -42.145,6.219 -42.145,6.219 l -6.401,-1.819 c -13,-24 -4.545,30.583 -4.545,30.583 8.8,34.4 144.292,-14.983 144.292,-14.983 0,0 168.8,-30.4 180,-34.4 11.2,-4 98.546,1.746 98.546,1.746 l -4.946,-21.382 c -64.8,-46.401 -76.8,-17.964 -90.4,-21.964 -13.6,-4 -11.2,5.6 -14.4,6.4 -3.2,0.8 -42.4,-24 -48.8,-23.2 z"
     id="path100"
     inkscape:connector-curvature="0" />
  <path
     style="fill:#fcf2eb;fill-opacity:1"
     d="m 329.305,185.48338 c -6.4,0.8 -32.375,-22.644 -16.8,8.8 21.2,42.801 -58.4,39.201 -75.2,28.001 -16.8,-11.2 7.2,18.4 7.2,18.4 18.4,20 -16,3.2 -16,3.2 -34.4,-12.8 -58.4,12.8 -61.6,13.6 -3.2,0.8 -8,4 -8.8,-2.4 -0.8,-6.4 -6.997,-21.424 -40,3.2 -32.365,24.055 -43.074,7.509 -43.074,7.509 l -6.8,-3.309 c -12.8,-23.2 -3.872,32.091 -3.872,32.091 8.8,34.4 144.946,-16.291 144.946,-16.291 0,0 168.801,-30.4 180.001,-34.4 11.2,-4 97.672,1.672 97.672,1.672 l -4.872,-21.891 c -64.801,-46.4 -76,-17.381 -89.6,-21.381 -13.6,-4.001 -11.2,5.6 -14.4,6.4 -3.201,0.8 -42.401,-24.001 -48.801,-23.201 z"
     id="path104"
     inkscape:connector-curvature="0" />
  <path
     style="fill:#ffffff;fill-opacity:1"
     d="m 68.213,264.02938 c -12.8,-22.001 -3.2,33.6 -3.2,33.6 8.8,34.4 145.6,-17.6 145.6,-17.6 0,0 168.801,-30.401 180.001,-34.401 11.2,-4 96.8,1.6 96.8,1.6 l -4.8,-22.4 c -64.8,-46.4 -75.2,-16.8 -88.8,-20.8 -13.6,-4 -11.2,5.6 -14.4,6.4 -3.2,0.8 -42.4,-24 -48.8,-23.2 -6.4,0.8 -31.62,-23.007 -16.8,8.8 22.227,47.707 -60.76,37.627 -75.201,28 -16.8,-11.2 7.2,18.4 7.2,18.4 18.4,20.001 -16,3.2 -16,3.2 -34.4,-12.8 -58.4,12.801 -61.6,13.601 -3.2,0.8 -8,4 -8.8,-2.4 -0.8,-6.401 -6.865,-21.257 -40,3.2 -33.6,24.8 -44,8.8 -44,8.8 l -7.2,-4.8 z"
     id="path108"
     inkscape:connector-curvature="0" />
  <path
     style="fill:#000000;fill-opacity:1"
     d="m 109.813,294.02938 c 0,0 -7.2,11.6 13.6,24.8 0,0 1.4,1.4 -16.6,-2.8 0,0 -6.2,-2 -7.8,-12.4 0,0 -4.8,-4.4 -9.6,-10 -4.8,-5.6 20.4,0.4 20.4,0.4 z"
     id="path112"
     inkscape:connector-curvature="0" />
  <path
     style="fill:#cccccc;fill-opacity:1"
     d="m 249.813,246.42838 c 0,0 17.698,26.821 17.1,31.601 -1.3,10.4 -1.5,20 1.7,24 3.201,4 12.001,37.2 12.001,37.2 0,0 -0.4,1.2 12,-36.8 0,0 11.6,-16 -8.4,-34.4 0,0 -35.201,-28.801 -34.401,-21.601 z"
     id="path116"
     inkscape:connector-curvature="0" />
  <path
     style="fill:#000000;fill-opacity:1"
     d="m 129.813,320.82938 c 0,0 11.2,7.2 -3.2,38.4 l 6.4,-2.4 c 0,0 -0.8,11.2 -4,13.6 l 7.2,-3.2 c 0,0 4.8,8 0.8,12.8 0,0 16.8,8 16,14.4 0,0 6.4,-8 2.4,-14.4 -4,-6.4 -11.2,-2.4 -10.4,-20.8 l -8.8,3.2 c 0,0 5.6,-8.8 5.6,-15.2 l -8,2.4 c 0,0 15.469,-26.578 4.8,-28 -6,-0.8 -8.8,-0.8 -8.8,-0.8 z"
     id="path120"
     inkscape:connector-curvature="0" />
  <path
     style="fill:#cccccc;fill-opacity:1"
     d="m 162.213,337.62938 c 0,0 2.8,-4.4 0,-3.6 -2.8,0.8 -34,15.6 -40,25.2 0,0 34.4,-24.4 40,-21.6 z"
     id="path124"
     inkscape:connector-curvature="0" />
  <path
     style="fill:#cccccc;fill-opacity:1"
     d="m 172.613,345.62938 c 0,0 2.8,-4.4 0,-3.6 -2.8,0.8 -34,15.6 -40,25.2 0,0 34.4,-24.4 40,-21.6 z"
     id="path128"
     inkscape:connector-curvature="0" />
  <path
     style="fill:#cccccc;fill-opacity:1"
     d="m 185.813,330.42938 c 0,0 2.8,-4.4 0,-3.6 -2.8,0.8 -34,15.6 -40,25.2 0,0 34.4,-24.4 40,-21.6 z"
     id="path132"
     inkscape:connector-curvature="0" />
  <path
     style="fill:#cccccc;fill-opacity:1"
     d="m 162.613,374.02938 c 0,0 0,-6 -2.8,-5.2 -2.8,0.8 -38.8,18.4 -44.8,28 0,0 42,-25.6 47.6,-22.8 z"
     id="path136"
     inkscape:connector-curvature="0" />
  <path
     style="fill:#cccccc;fill-opacity:1"
     d="m 163.813,363.22938 c 0,0 1.2,-4.8 -1.6,-4 -2,0 -28.4,11.6 -34.4,21.2 0,0 29.6,-21.6 36,-17.2 z"
     id="path140"
     inkscape:connector-curvature="0" />
  <path
     style="fill:#cccccc;fill-opacity:1"
     d="m 149.413,410.82938 -10,7.6 c 0,0 10.4,-7.6 14,-6.4 0,0 -6.8,11.2 -7.6,16.4 0,0 10.4,-12.8 16,-12.4 0,0 7.6,0.4 7.6,11.2 0,0 5.6,-10.4 8.8,-10 0,0 1.2,6.4 0,13.2 0,0 4,-7.6 8,-6 0,0 6.4,-2 5.6,9.6 0,0 0,10.4 -0.8,13.2 0,0 5.6,-26.4 8,-26.8 0,0 8,-1.2 12.8,7.6 0,0 -4,-7.6 0.8,-5.6 0,0 10.8,1.6 14,8.4 0,0 -6.8,-12 -1.2,-8.8 0,0 6.8,0 8,6.4 0,0 8.4,21.2 10.4,22.8 0,0 -7.6,-21.6 -6,-21.6 0,0 -2,-12 3.2,2.8 0,0 -3.2,-14 2.4,-13.2 5.6,0.8 10,10.8 18.4,8.4 0,0 9.601,5.6 11.601,-63.6 l -124.001,46.8 z"
     id="path144"
     inkscape:connector-curvature="0" />
  <path
     style="fill:#000000;fill-opacity:1"
     d="m 154.213,318.02938 c 0,0 14.8,-6 54.8,0 0,0 7.2,0.4 14,-8.4 6.8,-8.8 33.6,-16 40,-14 l 9.601,6.4 0.8,1.2 c 0,0 12.4,10.4 12.8,18 0.4,7.6 -14.4,55.6 -24.001,71.6 -9.6,16 -19.2,28.4 -38.4,26 0,0 -20.8,-4 -46.4,0 0,0 -29.2,-1.6 -32,-9.6 -2.8,-8 11.2,-23.2 11.2,-23.2 0,0 4.4,-8.4 3.2,-22.8 -1.2,-14.4 -0.8,-42.4 -5.6,-45.2 z"
     id="path148"
     inkscape:connector-curvature="0" />
  <path
     style="fill:#e5668c;fill-opacity:1"
     d="m 176.213,320.02938 c 8.4,18.4 -21.2,83.6 -21.2,83.6 -2,1.6 12.66,7.645 22.8,5.2 10.946,-2.638 51.2,1.6 51.2,1.6 23.6,-15.6 36.4,-60 36.4,-60 0,0 10.401,-24 -7.2,-27.2 -17.6,-3.2 -82,-3.2 -82,-3.2 z"
     id="path152"
     inkscape:connector-curvature="0" />
  <path
     style="fill:#b23259;fill-opacity:1"
     d="m 174.182,350.92538 c 3.326,-12.79 4.91,-24.591 2.031,-30.896 0,0 62.4,6.4 73.6,-14.4 4.241,-7.875 19.001,22.8 18.6,32.4 0,0 -63,14.4 -77.8,3.2 l -16.431,9.696 z"
     id="path156"
     inkscape:connector-curvature="0" />
  <path
     style="fill:#a5264c;fill-opacity:1"
     d="m 178.613,367.22938 c 0,0 2,7.2 -0.4,11.2 0,0 -1.6,0.8 -2.8,1.2 0,0 1.2,3.6 7.2,5.2 0,0 2,4.4 4.4,4.8 2.4,0.4 7.2,6 11.2,4.8 4,-1.2 15.2,-5.2 15.2,-5.2 0,0 5.6,-3.2 14.4,0.4 0,0 2.375,-0.802 2.8,-4.8 0.5,-4.7 3.6,-8.4 5.6,-10.4 2,-2 11.6,-14.8 10.4,-15.2 -1.2,-0.4 -68,8 -68,8 z"
     id="path160"
     inkscape:connector-curvature="0" />
  <path
     style="fill:#ff727f;fill-opacity:1;stroke:#000000"
     d="m 174.213,318.82938 c 0,0 -2.8,22.4 0.4,30.8 3.2,8.4 2.4,10.4 1.6,14.4 -0.8,4 3.6,14 9.2,20 l 12,1.6 c 0,0 15.2,-3.6 24.4,-0.8 0,0 8.994,1.343 12.4,-13.6 0,0 4.8,-6.4 12,-9.2 7.2,-2.8 14.4,-44.4 10.4,-52.4 -4,-8 -18.4,-12.4 -34.4,3.2 -16,15.6 -18,-1.2 -48,6 z"
     id="path164"
     inkscape:connector-curvature="0" />
  <path
     style="fill:#ffffcc;fill-opacity:1;stroke:#000000;stroke-width:0.5"
     d="m 175.813,393.62938 c 0,0 -0.8,-2 -5.2,-2.4 0,0 -22.4,-3.6 -30.8,-16 0,0 -6.8,-5.6 -2.4,6 0,0 10.4,20.4 17.2,23.2 0,0 16.4,4 21.2,-10.8 z"
     id="path168"
     inkscape:connector-curvature="0" />
  <path
     style="fill:#cc3f4c;fill-opacity:1"
     d="m 255.755,329.65738 c 0.659,-7.906 2.612,-16.52 0.858,-20.028 -6.446,-12.894 -23.419,-7.506 -34.4,3.2 -16,15.6 -18,-1.2 -48,6 0,0 -1.745,13.963 -0.905,23.975 0,0 37.305,-11.575 38.105,-5.975 0,0 1.6,-3.2 10.8,-3.2 9.2,0 31.942,-1.172 33.542,-3.972 z"
     id="path172"
     inkscape:connector-curvature="0" />
  <path
     style="fill:none;stroke:#a51926;stroke-width:2"
     d="m 212.613,319.62938 c 0,0 4.8,4.8 1.2,14.4 0,0 -14.4,16 -12.4,30"
     id="path176"
     inkscape:connector-curvature="0" />
  <path
     style="fill:#ffffcc;fill-opacity:1;stroke:#000000;stroke-width:0.5"
     d="m 164.613,404.42938 c 0,0 -4.4,-12.8 4.4,-6 0,0 4.8,2 3.6,3.6 -1.2,1.6 -6.8,5.6 -8,2.4 z"
     id="path180"
     inkscape:connector-curvature="0" />
  <path
     style="fill:#ffffcc;fill-opacity:1;stroke:#000000;stroke-width:0.5"
     d="m 169.653,405.62938 c 0,0 -3.52,-10.24 3.52,-4.8 0,0 4.421,2.448 2.88,2.88 -4.56,1.28 0,3.84 -6.4,1.92 z"
     id="path184"
     inkscape:connector-curvature="0" />
  <path
     style="fill:#ffffcc;fill-opacity:1;stroke:#000000;stroke-width:0.5"
     d="m 174.453,405.62938 c 0,0 -3.52,-10.24 3.52,-4.8 0,0 4.375,2.31 2.88,2.88 -3.36,1.28 0,3.84 -6.4,1.92 z"
     id="path188"
     inkscape:connector-curvature="0" />
  <path
     style="fill:#ffffcc;fill-opacity:1;stroke:#000000;stroke-width:0.5"
     d="m 181.053,405.82938 c 0,0 -3.52,-10.24 3.52,-4.8 0,0 4.383,2.332 2.881,2.88 -2.961,1.08 0,3.84 -6.401,1.92 z"
     id="path192"
     inkscape:connector-curvature="0" />
  <path
     style="fill:#ffffcc;fill-opacity:1;stroke:#000000;stroke-width:0.5"
     d="m 187.533,405.74938 c 0,0 -3.52,-10.24 3.521,-4.8 0,0 3.84,1.6 2.88,2.88 -0.96,1.28 0,3.84 -6.401,1.92 z"
     id="path196"
     inkscape:connector-curvature="0" />
  <path
     style="fill:#ffffcc;fill-opacity:1;stroke:#000000;stroke-width:0.5"
     d="m 194.213,406.42938 c 0,0 -4.8,-12.4 4.4,-6 0,0 4.8,2 3.6,3.6 -1.2,1.6 0,4.8 -8,2.4 z"
     id="path200"
     inkscape:connector-curvature="0" />
  <path
     style="fill:none;stroke:#a5264c;stroke-width:2"
     d="m 165.813,389.22938 c 0,0 13.2,-2.8 19.2,0.4 0,0 6,1.2 7.2,0.8 1.2,-0.4 4.4,-0.8 4.4,-0.8"
     id="path204"
     inkscape:connector-curvature="0" />
  <path
     style="fill:none;stroke:#a5264c;stroke-width:2"
     d="m 199.813,398.02938 c 0,0 12,-13.6 24,-9.2 7.016,2.573 6,-0.8 6.8,-3.6 0.8,-2.8 1,-7 6,-10"
     id="path208"
     inkscape:connector-curvature="0" />
  <path
     style="fill:#ffffcc;fill-opacity:1;stroke:#000000;stroke-width:0.5"
     d="m 217.013,382.02938 c 0,0 -4,-10.8 -6.8,2 -2.8,12.8 -6,16.4 -7.6,19.2 0,0 0,5.2 8.4,4.8 0,0 10.8,-0.4 11.2,-3.2 0.4,-2.8 -1.2,-14.4 -5.2,-22.8 z"
     id="path212"
     inkscape:connector-curvature="0" />
  <path
     style="fill:none;stroke:#a5264c;stroke-width:2"
     d="m 231.013,389.22938 c 0,0 3.6,-2.4 6,-1.2"
     id="path216"
     inkscape:connector-curvature="0" />
  <path
     style="fill:none;stroke:#a5264c;stroke-width:2"
     d="m 237.513,372.82938 c 0,0 2.9,-4.9 7.7,-5.7"
     id="path220"
     inkscape:connector-curvature="0" />
  <path
     style="fill:#b2b2b2;fill-opacity:1"
     d="m 158.213,409.62938 c 0,0 18,3.2 22.4,1.6 0,0 8.8,0 0.4,2 0,0 -12.8,0 -20.8,-1.2 0,0 -11.6,-5.6 -2,-2.4 z"
     id="path224"
     inkscape:connector-curvature="0" />
  <path
     style="fill:#ffffcc;fill-opacity:1;stroke:#000000;stroke-width:0.5"
     d="m 172.213,316.42938 c 0,0 17.6,0 19.6,0.8 0,0 7.2,30.8 3.6,38.4 0,0 -1.2,2.8 -4,-2.8 0,0 -18.4,-32.8 -21.6,-34.8 -3.2,-2 1.2,-1.6 2.4,-1.6 z"
     id="path228"
     inkscape:connector-curvature="0" />
  <path
     style="fill:#ffffcc;fill-opacity:1;stroke:#000000;stroke-width:0.5"
     d="m 95.113,313.72938 c 0,0 8.9,1.7 21.5,4.3 0,0 4.8,22.4 8,27.2 3.2,4.8 -0.4,4.8 -4,2 -3.6,-2.8 -18.4,-16.8 -20.4,-21.2 -2,-4.4 -5.1,-12.3 -5.1,-12.3 z"
     id="path232"
     inkscape:connector-curvature="0" />
  <path
     style="fill:#ffffcc;fill-opacity:1;stroke:#000000;stroke-width:0.5"
     d="m 116.974,318.24638 c 0,0 5.8,1.548 6.809,3.763 1.008,2.214 -1.202,5.511 -1.202,5.511 0,0 -1,3.305 -2.202,1.143 -1.202,-2.163 -4.074,-9.823 -3.405,-10.417 z"
     id="path236"
     inkscape:connector-curvature="0" />
  <path
     style="fill:#000000;fill-opacity:1"
     d="m 117.013,318.02938 c 0,0 3.6,5.2 7.2,5.2 3.6,0 3.982,-0.413 6.8,0.2 4.6,1 4.2,-1 10.8,0.2 2.64,0.48 5.2,-0.4 8,0.8 2.8,1.2 6,0.4 7.2,-1.6 1.2,-2 6,-6.2 6,-6.2 0,0 -12.8,1.8 -15.6,2.6 0,0 -22.4,1.2 -30.4,-1.2 z"
     id="path240"
     inkscape:connector-curvature="0" />
  <path
     style="fill:#ffffcc;fill-opacity:1;stroke:#000000;stroke-width:0.5"
     d="m 161.613,318.22938 c 0,0 -6.45,3.5 -6.85,5.9 -0.4,2.4 5.25,6.1 5.25,6.1 0,0 2.75,4.6 3.35,2.2 0.6,-2.4 -0.95,-13.8 -1.75,-14.2 z"
     id="path244"
     inkscape:connector-curvature="0" />
  <path
     style="fill:#ffffcc;fill-opacity:1;stroke:#000000;stroke-width:0.5"
     d="m 124.128,323.69338 c 0,0 7.007,11.188 7.224,-0.023 0,0 0.557,-1.258 -1.203,-1.28 -6.075,-0.076 -4.554,-4.178 -6.021,1.303 z"
     id="path248"
     inkscape:connector-curvature="0" />
  <path
     style="fill:#ffffcc;fill-opacity:1;stroke:#000000;stroke-width:0.5"
     d="m 131.306,323.94238 c 0,0 7.921,11.187 7.285,-0.093 0,0 0.007,-0.332 -1.746,-0.485 -4.747,-0.414 -4.402,-4.932 -5.539,0.578 z"
     id="path252"
     inkscape:connector-curvature="0" />
  <path
     style="fill:#ffffcc;fill-opacity:1;stroke:#000000;stroke-width:0.5"
     d="m 138.519,323.95038 c 0,0 7.96,10.628 7.291,0.962 0,0 0.119,-1.233 -1.535,-1.534 -3.892,-0.706 -4.103,-3.955 -5.756,0.572 z"
     id="path256"
     inkscape:connector-curvature="0" />
  <path
     style="fill:#ffffcc;fill-opacity:1;stroke:#000000;stroke-width:0.5"
     d="m 145.395,324.03038 c 0,0 7.9,11.561 8.248,1.78 0,0 1.644,-1.378 -0.102,-1.6 -5.818,-0.74 -5.02,-5.194 -8.146,-0.18 z"
     id="path260"
     inkscape:connector-curvature="0" />
  <path
     style="fill:#e5e5b2;fill-opacity:1"
     d="m 109.221,327.56038 -7.658,-1.531 c -2.6,-5 -4.7,-11.15 -4.7,-11.15 0,0 6.35,1 18.85,3.8 0,0 0.876,3.318 2.348,9.113 l -8.84,-0.232 z"
     id="path264"
     inkscape:connector-curvature="0" />
  <path
     style="fill:#e5e5b2;fill-opacity:1"
     d="m 174.289,322.89838 c -1.666,-2.506 -2.983,-4.264 -3.633,-4.67 -3.013,-1.883 1.13,-1.506 2.259,-1.506 0,0 16.571,0 18.454,0.753 0,0 0.524,2.242 1.208,5.633 0,0 -10.088,-2.01 -18.288,-0.21 z"
     id="path268"
     inkscape:connector-curvature="0" />
  <path
     style="fill:#cc7226;fill-opacity:1"
     d="m 227.893,184.74938 c 27.721,3.96 53.241,-31.68 55.001,-41.361 1.76,-9.68 -8.36,-21.56 -8.36,-21.56 1.32,-3.08 -3.52,-17.16 -8.8,-26.400002 -5.28,-9.24 -21.181,-8.266 -38.721,-9.24 -15.84,-0.88 -34.32,22.440002 -35.64,24.200002 -1.32,1.76 4.84,40.041 6.16,45.761 1.32,5.72 -1.32,32.12 -1.32,32.12 34.24,-9.1 3.96,-7.48 31.68,-3.52 z"
     id="path272"
     inkscape:connector-curvature="0" />
  <path
     style="fill:#ea8e51;fill-opacity:1"
     d="m 192.101,111.03638 c -1.296,1.728 4.752,39.313 6.048,44.929 1.296,5.616 -1.296,31.536 -1.296,31.536 32.672,-8.88 3.888,-7.344 31.104,-3.456 27.217,3.888 52.273,-31.104 54.001,-40.609 1.728,-9.504 -8.208,-21.168 -8.208,-21.168 1.296,-3.024 -3.456,-16.848 -8.64,-25.920002 -5.184,-9.072 -20.795,-8.115 -38.017,-9.072 -15.552,-0.864 -33.696,22.032002 -34.992,23.760002 z"
     id="path276"
     inkscape:connector-curvature="0" />
  <path
     style="fill:#efaa7c;fill-opacity:1"
     d="m 192.829,111.68438 c -1.272,1.696 4.664,38.585 5.936,44.097 1.272,5.512 -1.272,30.952 -1.272,30.952 31.404,-9.16 3.816,-7.208 30.528,-3.392 26.713,3.816 51.305,-30.528 53.001,-39.857 1.696,-9.328 -8.056,-20.776 -8.056,-20.776 1.272,-2.968 -3.392,-16.536 -8.48,-25.440002 -5.088,-8.904 -20.41,-7.965 -37.313,-8.904 -15.264,-0.848 -33.072,21.624002 -34.344,23.320002 z"
     id="path280"
     inkscape:connector-curvature="0" />
  <path
     style="fill:#f4c6a8;fill-opacity:1"
     d="m 193.557,112.33238 c -1.248,1.664 4.576,37.857 5.824,43.265 1.248,5.408 -1.248,30.368 -1.248,30.368 29.436,-9.04 3.744,-7.072 29.952,-3.328 26.209,3.744 50.337,-29.952 52.001,-39.104 1.664,-9.153 -7.904,-20.385 -7.904,-20.385 1.248,-2.912 -3.328,-16.224 -8.32,-24.960002 -4.992,-8.736 -20.025,-7.815 -36.609,-8.736 -14.976,-0.832 -32.448,21.216002 -33.696,22.880002 z"
     id="path284"
     inkscape:connector-curvature="0" />
  <path
     style="fill:#f9e2d3;fill-opacity:1"
     d="m 194.285,112.98038 c -1.224,1.632 4.488,37.129 5.712,42.433 1.224,5.304 -1.224,29.784 -1.224,29.784 27.868,-8.92 3.672,-6.936 29.376,-3.264 25.705,3.672 49.369,-29.376 51.001,-38.353 1.632,-8.976 -7.752,-19.992 -7.752,-19.992 1.224,-2.856 -3.264,-15.912 -8.16,-24.480002 -4.896,-8.568 -19.64,-7.665 -35.905,-8.568 -14.688,-0.816 -31.824,20.808002 -33.048,22.440002 z"
     id="path288"
     inkscape:connector-curvature="0" />
  <path
     style="fill:#ffffff;fill-opacity:1"
     d="m 228.213,181.22838 c 25.2,3.6 48.401,-28.8 50.001,-37.6 1.6,-8.8 -7.6,-19.6 -7.6,-19.6 1.2,-2.8 -3.201,-15.6 -8.001,-24 -4.8,-8.400002 -19.254,-7.514002 -35.2,-8.400002 -14.4,-0.8 -31.2,20.400002 -32.4,22.000002 -1.2,1.6 4.4,36.4 5.6,41.6 1.2,5.2 -1.2,29.2 -1.2,29.2 25.5,-8.6 3.6,-6.8 28.8,-3.2 z"
     id="path292"
     inkscape:connector-curvature="0" />
  <path
     style="fill:#cccccc;fill-opacity:1"
     d="m 274.614,147.22838 c 0,0 -27.801,7.6 -39.401,6 0,0 -15.8,-6.6 -24.6,15.2 0,0 -3.6,7.2 -5.6,9.2 -2,2 69.601,-30.4 69.601,-30.4 z"
     id="path296"
     inkscape:connector-curvature="0" />
  <path
     style="fill:#000000;fill-opacity:1"
     d="m 278.414,145.02838 c 0,0 -29.001,12.2 -39.001,11.8 0,0 -16.4,-4.6 -24.8,10 0,0 -8.4,9.2 -11.6,10.8 0,0 -0.4,1.6 6,-2.4 l 10.4,5.2 c 0,0 14.8,9.6 24.4,-6.4 0,0 4,-11.2 4,-13.2 0,-2 21.2,-7.6 22.801,-8 1.6,-0.4 8.2,-4.6 7.8,-7.8 z"
     id="path300"
     inkscape:connector-curvature="0" />
  <path
     style="fill:#99cc32;fill-opacity:1"
     d="m 231.013,180.94238 c -6.872,0 -15.245,-3.865 -15.245,-10.114 0,-6.248 8.373,-12.513 15.245,-12.513 6.874,0 12.446,5.065 12.446,11.313 0,6.249 -5.572,11.314 -12.446,11.314 z"
     id="path304"
     inkscape:connector-curvature="0" />
  <path
     style="fill:#659900;fill-opacity:1"
     d="m 227.39,164.25838 c -4.846,0.722 -9.935,2.225 -9.863,2.009 1.54,-4.619 7.901,-7.952 13.486,-7.952 4.296,0 8.084,1.978 10.32,4.988 0,0 -5.316,-0.33 -13.943,0.955 z"
     id="path308"
     inkscape:connector-curvature="0" />
  <path
     style="fill:#ffffff;fill-opacity:1"
     d="m 239.413,164.02838 c 0,0 -4.4,-3.2 -4.4,-1 0,0 3.6,4.4 4.4,1 z"
     id="path312"
     inkscape:connector-curvature="0" />
  <path
     style="fill:#000000;fill-opacity:1"
     d="m 229.413,172.15438 c -2.499,0 -4.525,-2.026 -4.525,-4.526 0,-2.499 2.026,-4.525 4.525,-4.525 2.5,0 4.526,2.026 4.526,4.525 0,2.5 -2.026,4.526 -4.526,4.526 z"
     id="path316"
     inkscape:connector-curvature="0" />
  <path
     style="fill:#cc7226;fill-opacity:1"
     d="m 125.413,158.82838 c 0,0 -3.2,-21.2 -0.8,-25.6 0,0 10.8,-10 10.4,-13.6 0,0 -0.4,-18 -1.6,-18.8 -1.2,-0.8 -8.8,-6.800002 -14.8,-0.4 0,0 -10.4,18 -9.6,24.4 l 0,2 c 0,0 -7.6,-0.4 -9.2,1.6 0,0 -1.2,5.2 -2.4,5.6 0,0 -2.8,2.4 -0.8,5.2 0,0 -2,2.4 -1.6,6.4 l 7.6,4 c 0,0 2,14.4 12.8,19.6 4.836,2.329 8,-4.4 10,-10.4 z"
     id="path320"
     inkscape:connector-curvature="0" />
  <path
     style="fill:#ffffff;fill-opacity:1"
     d="m 124.413,156.98838 c 0,0 -2.88,-19.08 -0.72,-23.04 0,0 9.72,-9 9.36,-12.24 0,0 -0.36,-16.2 -1.44,-16.92 -1.08,-0.72 -7.92,-6.120002 -13.32,-0.36 0,0 -9.36,16.2 -8.64,21.96 l 0,1.8 c 0,0 -6.84,-0.36 -8.28,1.44 0,0 -1.08,4.68 -2.16,5.04 0,0 -2.52,2.16 -0.72,4.68 0,0 -1.8,2.16 -1.44,5.76 l 6.84,3.6 c 0,0 1.8,12.96 11.52,17.64 4.352,2.095 7.2,-3.96 9,-9.36 z"
     id="path324"
     inkscape:connector-curvature="0" />
  <path
     style="fill:#eb955c;fill-opacity:1"
     d="m 132.963,101.81838 c -1.09,-0.86 -8.58,-6.630002 -14.43,-0.39 0,0 -10.14,17.55 -9.36,23.79 l 0,1.95 c 0,0 -7.41,-0.39 -8.97,1.56 0,0 -1.17,5.07 -2.34,5.46 0,0 -2.73,2.34 -0.78,5.07 0,0 -1.95,2.34 -1.56,6.24 l 7.41,3.9 c 0,0 1.95,14.04 12.48,19.11 4.714,2.27 7.8,-4.29 9.75,-10.14 0,0 -3.12,-20.67 -0.78,-24.96 0,0 10.53,-9.75 10.14,-13.26 0,0 -0.39,-17.55 -1.56,-18.33 z"
     id="path328"
     inkscape:connector-curvature="0" />
  <path
     style="fill:#f2b892;fill-opacity:1"
     d="m 132.513,102.80838 c -0.98,-0.92 -8.36,-6.460002 -14.06,-0.38 0,0 -9.88,17.1 -9.12,23.18 l 0,1.9 c 0,0 -7.22,-0.38 -8.74,1.52 0,0 -1.14,4.94 -2.28,5.32 0,0 -2.66,2.28 -0.76,4.94 0,0 -1.9,2.28 -1.52,6.08 l 7.22,3.8 c 0,0 1.9,13.68 12.16,18.62 4.594,2.212 7.6,-4.18 9.5,-9.88 0,0 -3.04,-20.14 -0.76,-24.32 0,0 10.26,-9.5 9.88,-12.92 0,0 -0.38,-17.1 -1.52,-17.86 z"
     id="path332"
     inkscape:connector-curvature="0" />
  <path
     style="fill:#f8dcc8;fill-opacity:1"
     d="m 132.063,103.79838 c -0.87,-0.98 -8.14,-6.290002 -13.69,-0.37 0,0 -9.62,16.65 -8.88,22.57 l 0,1.85 c 0,0 -7.03,-0.37 -8.51,1.48 0,0 -1.11,4.81 -2.22,5.18 0,0 -2.59,2.22 -0.74,4.81 0,0 -1.85,2.22 -1.48,5.92 l 7.03,3.7 c 0,0 1.85,13.32 11.84,18.13 4.473,2.154 7.4,-4.07 9.25,-9.62 0,0 -2.96,-19.61 -0.74,-23.68 0,0 9.99,-9.25 9.62,-12.58 0,0 -0.37,-16.65 -1.48,-17.39 z"
     id="path336"
     inkscape:connector-curvature="0" />
  <path
     style="fill:#ffffff;fill-opacity:1"
     d="m 124.413,156.88838 c 0,0 -2.88,-18.98 -0.72,-22.94 0,0 9.72,-9 9.36,-12.24 0,0 -0.36,-16.2 -1.44,-16.92 -0.76,-1.04 -7.92,-6.120002 -13.32,-0.36 0,0 -9.36,16.2 -8.64,21.96 l 0,1.8 c 0,0 -6.84,-0.36 -8.28,1.44 0,0 -1.08,4.68 -2.16,5.04 0,0 -2.52,2.16 -0.72,4.68 0,0 -1.8,2.16 -1.44,5.76 l 6.84,3.6 c 0,0 1.8,12.96 11.52,17.64 4.352,2.095 7.2,-4.06 9,-9.46 z"
     id="path340"
     inkscape:connector-curvature="0" />
  <path
     style="fill:#cccccc;fill-opacity:1"
     d="m 121.313,150.62838 c 0,0 -21.6,-10.2 -22.5,-11 0,0 9.1,8.2 9.9,8.2 0.8,0 12.6,2.8 12.6,2.8 z"
     id="path344"
     inkscape:connector-curvature="0" />
  <path
     style="fill:#000000;fill-opacity:1"
     d="m 104.213,144.42838 c 0,0 18.4,3.6 18.4,8 0,2.912 -0.243,16.331 -5.6,14.8 -8.4,-2.4 -4.8,-16.8 -12.8,-22.8 z"
     id="path348"
     inkscape:connector-curvature="0" />
  <path
     style="fill:#99cc32;fill-opacity:1"
     d="m 112.613,148.22838 c 0,0 8.978,1.474 10,4.2 0.6,1.6 1.263,9.908 -4.2,11 -4.552,0.911 -6.782,-9.31 -5.8,-15.2 z"
     id="path352"
     inkscape:connector-curvature="0" />
  <path
     style="fill:#000000;fill-opacity:1"
     d="m 198.608,190.77738 c -0.497,-1.742 0.814,-1.611 2.605,-2.149 2,-0.6 14.2,-4.4 15,-7 0.8,-2.6 14,1.8 14,1.8 1.8,0.8 6.2,3.4 6.2,3.4 4.8,1.2 11.4,1.6 11.4,1.6 2.4,1 5.8,3.8 5.8,3.8 14.6,10.2 27.001,3 27.001,3 20,-6.6 14,-23.8 14,-23.8 -3,-9 0.2,-12.4 0.2,-12.4 0.2,-3.8 7.4,2.6 7.4,2.6 2.6,4.2 3.4,9.2 3.4,9.2 8,11.2 4.6,-6.6 4.6,-6.6 0.2,-1 -2.6,-4.6 -2.6,-5.8 0,-1.2 -1.8,-4.6 -1.8,-4.6 -3,-3.4 -0.6,-10.4 -0.6,-10.4 1.8,-13.8 -0.4,-12 -0.4,-12 -1.2,-1.8 -10.4,8.2 -10.4,8.2 -2.2,3.4 -8.2,5 -8.2,5 -2.8,1.8 -6.2,0.4 -6.2,0.4 -2.6,-0.4 -8.2,6.6 -8.2,6.6 2.8,-0.2 5.2,4.2 7.6,4.4 2.4,0.2 4.2,-2.4 5.8,-3 1.6,-0.6 4.4,5.2 4.4,5.2 0.4,2.6 -5.2,7.4 -5.2,7.4 -0.4,4.6 -2,3 -2,3 -3,-0.6 -4.2,3.2 -5.2,7.8 -1,4.6 -5.2,5 -5.2,5 -1.6,7.4 -2.801,4.4 -2.801,4.4 -0.2,-5.6 -6.2,0.2 -6.2,0.2 -1.2,2 -5.8,-0.2 -5.8,-0.2 -6.8,-2 -4.4,-4 -4.4,-4 1.8,-2.2 13,0 13,0 2.2,-1.6 -5.8,-5.6 -5.8,-5.6 -0.6,-1.8 0.4,-6.2 0.4,-6.2 1.2,-3.2 8,-8.8 8,-8.8 9.401,-1.2 6.601,-2.8 6.601,-2.8 -6.2,-5.2 -12.001,2.4 -12.001,2.4 -2.2,6.2 -19.6,21.2 -19.6,21.2 -4.8,3.4 -2.2,-3.4 -6.2,0 -4,3.4 -24.6,-5.6 -24.6,-5.6 -11.562,-1.193 -14.294,14.549 -17.823,11.429 0,0 5.418,8.52 3.818,2.92 z"
     id="path356"
     inkscape:connector-curvature="0" />
  <path
     style="fill:#000000;fill-opacity:1"
     d="m 393.414,24.428378 c 0,0 -25.6,8 -28.4,26.8 0,0 -2.4,22.8 18,40.4 0,0 0.4,6.4 2.4,9.600002 0,0 -1.6,4.8 17.2,-2.800002 l 27.2,-8.4 c 0,0 6.4,-2.4 11.6,-11.2 5.2,-8.8 20.4,-27.6 16.8,-52.8 0,0 1.2,-11.2 -4.8,-11.6 0,0 -8.4,-1.6 -15.6,6 0,0 -6.8,3.2 -9.2,2.8 l -35.2,1.2 z"
     id="path360"
     inkscape:connector-curvature="0" />
  <path
     style="fill:#000000;fill-opacity:1"
     d="m 448.035,23.438378 c 0,0 2.1,-8.93 -2.74,-4.09 0,0 -7.04,5.72 -14.521,5.72 0,0 -14.52,2.2 -18.92,15.4 0,0 -3.96,26.84 3.96,32.56 0,0 4.84,7.48 11.88,0.88 7.041,-6.6 22.541,-36.83 20.341,-50.47 z"
     id="path364"
     inkscape:connector-curvature="0" />
  <path
     style="fill:#323232;fill-opacity:1"
     d="m 447.661,23.796378 c 0,0 2.09,-8.744 -2.662,-3.992 0,0 -6.912,5.616 -14.257,5.616 0,0 -14.256,2.16 -18.576,15.12 0,0 -3.888,26.352 3.888,31.968 0,0 4.752,7.344 11.664,0.864 6.913,-6.48 22.103,-36.184 19.943,-49.576 z"
     id="path368"
     inkscape:connector-curvature="0" />
  <path
     style="fill:#666666;fill-opacity:1"
     d="m 447.287,24.154378 c 0,0 2.08,-8.558 -2.584,-3.894 0,0 -6.784,5.512 -13.993,5.512 0,0 -13.992,2.12 -18.232,14.84 0,0 -3.816,25.864 3.816,31.376 0,0 4.664,7.208 11.448,0.848 6.785,-6.36 21.665,-35.538 19.545,-48.682 z"
     id="path372"
     inkscape:connector-curvature="0" />
  <path
     style="fill:#999999;fill-opacity:1"
     d="m 446.913,24.512378 c 0,0 2.07,-8.372 -2.506,-3.796 0,0 -6.656,5.408 -13.729,5.408 0,0 -13.728,2.08 -17.888,14.56 0,0 -3.744,25.376 3.744,30.784 0,0 4.576,7.072 11.232,0.832 6.657,-6.24 21.227,-34.892 19.147,-47.788 z"
     id="path376"
     inkscape:connector-curvature="0" />
  <path
     style="fill:#cccccc;fill-opacity:1"
     d="m 446.539,24.870378 c 0,0 2.06,-8.186 -2.428,-3.698 0,0 -6.529,5.304 -13.465,5.304 0,0 -13.464,2.04 -17.544,14.28 0,0 -3.672,24.888 3.672,30.192 0,0 4.488,6.936 11.016,0.816 6.528,-6.12 20.789,-34.246 18.749,-46.894 z"
     id="path380"
     inkscape:connector-curvature="0" />
  <path
     style="fill:#ffffff;fill-opacity:1"
     d="m 446.164,25.228378 c 0,0 2.05,-8 -2.35,-3.6 0,0 -6.4,5.2 -13.2,5.2 0,0 -13.2,2 -17.2,14 0,0 -3.6,24.4 3.6,29.6 0,0 4.4,6.8 10.8,0.8 6.4,-6 20.35,-33.6 18.35,-46 z"
     id="path384"
     inkscape:connector-curvature="0" />
  <path
     style="fill:#992600;fill-opacity:1"
     d="m 234.613,228.42838 c 0,0 -20.4,-19.2 -28.4,-20 0,0 -34.4,-4 -49.2,14 0,0 17.6,-20.4 45.2,-14.8 0,0 -21.6,-4.4 -34,-1.2 0,0 -16.8,0 -26.4,14 l -2.8,4.8 c 0,0 4,-14.8 22.4,-20.8 0,0 22.8,-4.8 33.6,0 0,0 -21.6,-6.8 -31.6,-4.8 0,0 -30.4,-2.4 -43.2,24 0,0 4,-14.4 18.8,-21.6 0,0 13.6,-8.8 34,-6 0,0 14.4,3.2 19.6,5.6 5.2,2.4 4,-0.4 -4.4,-5.2 0,0 -5.6,-10 -19.6,-9.6 0,0 -42.8,3.6 -53.2,15.6 0,0 13.6,-11.2 24,-14 0,0 22.4,-8 30.8,-7.2 0,0 24.8,1 32.4,-3 0,0 -11.2,5 -8,8.2 3.2,3.2 10,10.8 10,12 0,1.2 24.2,23.3 27.8,27.7 l 2.2,2.3 z"
     id="path388"
     inkscape:connector-curvature="0" />
  <path
     style="fill:#cccccc;fill-opacity:1"
     d="m 373.013,422.42838 c 0,0 -15.5,-36.5 -28,-46 0,0 26,16 29.5,34 0,0 0,10 -1.5,12 z"
     id="path392"
     inkscape:connector-curvature="0" />
  <path
     style="fill:#cccccc;fill-opacity:1"
     d="m 420.013,429.92838 c 0,0 -26.5,-55 -45,-79 0,0 43.5,37.5 48.5,64 l 0.5,5.5 -3,-2.5 c 0,0 -0.5,9 -1,12 z"
     id="path396"
     inkscape:connector-curvature="0" />
  <path
     style="fill:#cccccc;fill-opacity:1"
     d="m 476.513,381.42838 c 0,0 -62.5,-59.5 -64,-62 0,0 60.5,66 63.5,73.5 0,0 -2,-9 0.5,-11.5 z"
     id="path400"
     inkscape:connector-curvature="0" />
  <path
     style="fill:#cccccc;fill-opacity:1"
     d="m 288.013,424.92838 c 0,0 19.5,-52 38.5,-29.5 0,0 15,10 14.5,13 0,0 -4,-6.5 -22,-6 0,0 -19,-3 -31,22.5 z"
     id="path404"
     inkscape:connector-curvature="0" />
  <path
     style="fill:#cccccc;fill-opacity:1"
     d="m 478.513,297.42838 c 0,0 -45,-28.5 -52.5,-30 -11.807,-2.361 49.5,29 54.5,39.5 0,0 2,-2.5 -2,-9.5 z"
     id="path408"
     inkscape:connector-curvature="0" />
  <path
     style="fill:#000000;fill-opacity:1"
     d="m 327.814,404.02938 c 0,0 20.4,-2 27.2,-8.8 l 4.4,3.6 17.6,-38.4 3.6,5.2 c 0,0 14.4,-14.8 13.6,-22.8 -0.8,-8 12.8,6 12.8,6 0,0 -0.8,-11.6 6.4,-4.8 0,0 -2.4,-15.6 6,-7.6 0,0 -10.537,-30.157 12,-4.4 5.6,6.4 1.2,-0.4 1.2,-0.4 0,0 -26,-48 -4.4,-33.6 0,0 2,-22.8 0.8,-27.2 -1.2,-4.4 -3.2,-26.801 -8,-32.001 -4.8,-5.2 0.4,-6.8 6,-1.6 0,0 -11.2,-24 2,-12 0,0 -3.6,-15.2 -8,-18 0,0 -5.6,-17.2 9.6,-6.4 0,0 -4.4,-12.4 -7.6,-15.6 0,0 -11.6,-27.6 -4.4,-22.8 l 4.4,3.6 c 0,0 -6.8,-14 -0.4,-9.6 6.4,4.4 6.4,4 6.4,4 0,0 -21.2,-33.2 -0.8,-15.6 0,0 -8.159,-13.918 -11.6,-20.8 0,0 -18.8,-20.4 -4.4,-14 l 4.8,1.6 c 0,0 -8.8,-10 -16.8,-11.6 -8,-1.600002 2.4,-8.000002 8.8,-6.000002 6.4,2 22,9.600002 22,9.600002 0,0 12.8,18.8 16.8,19.2 0,0 -20,-7.6 -14,0.4 0,0 14.4,14 7.2,13.6 0,0 -6,7.2 -1.2,16 0,0 -18.459,-18.391 -3.6,7.2 l 6.8,16.4 c 0,0 -24.4,-24.8 -13.2,-2.8 0,0 17.2,23.6 19.2,24 2,0.4 6.4,9.2 6.4,9.2 l -4.4,-2 5.2,8.8 c 0,0 -11.2,-12 -5.2,1.2 l 5.6,14.4 c 0,0 -20.4,-22 -6.8,7.6 0,0 -16.4,-5.2 -7.6,12 0,0 -1.6,16.001 -1.2,21.201 0.4,5.2 1.6,33.6 -2.8,41.6 -4.4,8 6,27.2 8,31.2 2,4 5.6,14.8 -3.2,5.6 -8.8,-9.2 -4.4,-3.6 -2.4,5.2 2,8.8 8,24.4 7.2,30 0,0 -1.2,1.2 -4.4,-2.4 0,0 -14.8,-22.8 -13.2,-8.4 0,0 -1.2,8 -4.4,16.8 0,0 -3.2,10.8 -3.2,2 0,0 -3.2,-16.8 -6,-9.2 -2.8,7.6 -6.4,13.6 -9.2,16 -2.8,2.4 -8,-20.4 -9.2,-10 0,0 -12,-12.4 -16.8,4 l -11.6,16.4 c 0,0 -0.4,-12.4 -1.6,-6.4 0,0 -30,6 -40.4,1.6 z"
     id="path412"
     inkscape:connector-curvature="0" />
  <path
     style="fill:#000000;fill-opacity:1"
     d="m 293.414,47.228378 c 0,0 -11.6,-8 -15.6,-7.6 -4,0.4 27.6,-8.8 68.8,18.8 0,0 4.8,2.8 8.4,2.4 0,0 3.2,2.4 0.4,6 0,0 -8.8,9.6 2.4,20.8 0,0 18.4,6.8 12.8,-2 0,0 10.8,4 13.2,8 2.4,4 1.2,0 1.2,0 0,0 -6.4,-7.2 -12.4,-12.4 0,0 -5.2,-2 -8,-10.4 -2.8,-8.4 -5.2,-18.4 -0.8,-21.6 0,0 -4,4.4 -3.2,0.4 0.8,-4 4.4,-7.6 6,-8 1.6,-0.4 18,-16.2 24.8,-16.6 0,0 -9.2,1.4 -12.2,0.4 -3,-1 -29.6,-12.4 -35.6,-13.6 0,0 -16.8,-6.5999999 -4.8,-4.5999999 0,0 35.8,3.7999999 54,16.9999999 0,0 -7.2,-8.4 -25.6,-15.3999999 0,0 -22.2,-12.6 -57.4,-7.6 0,0 -17.8,3.2 -25.6,5 0,0 -2.6,-0.6 -3.2,-1 -0.6,-0.4 -12.401,-9.4 -40.001,-2.4 0,0 -17,4.6 -25.6,9.3999999 0,0 -15.2,1.2 -18.8,4.4 0,0 -18.6,14.6 -20.6,15.4 -2,0.8 -13.4,8.4 -14.2,8.8 0,0 24.6,-6.6 27,-9 2.4,-2.4 19.8,-5 22.2,-3.6 2.4,1.4 10.8,0.8 1.2,1.4 0,0 75.601,14.8 76.401,16.8 0.8,2 4.8,0.8 4.8,0.8 z"
     id="path416"
     inkscape:connector-curvature="0" />
  <path
     style="fill:#cc7226;fill-opacity:1"
     d="m 364.814,38.028378 c 0,0 -10.2,-7.4 -12.2,-7.4 -2,0 -14.4,-10.2 -18.6,-9.8 -4.2,0.4 -16.4,-9.6 -43.8,-1.4 0,0 -0.6,-2 3,-2.8 0,0 6.4,-2.2 6.8,-2.8 0,0 20.2,-4.1999999 27.4,-0.6 0,0 9.2,2.6 15.4,8.8 0,0 11.2,3.2 14.4,2.2 0,0 8.8,2.2 9.2,4 0,0 5.8,3 4,5.6 0,0 0.4,1.6 -5.6,4.2 z"
     id="path420"
     inkscape:connector-curvature="0" />
  <path
     style="fill:#cc7226;fill-opacity:1"
     d="m 352.343,35.919378 c 0.807,0.632 1.826,0.73 2.431,1.539 0.234,0.314 -0.055,0.64 -0.37,0.737 -1.043,0.317 -2.099,-0.253 -3.241,0.335 -0.402,0.207 -1.044,0.025 -1.597,-0.124 -1.632,-0.441 -3.461,-0.466 -5.152,0.222 -1.985,-1.129 -4.345,-0.545 -6.426,-1.546 -0.058,-0.027 -0.28,0.319 -0.354,0.292 -3.046,-1.145 -6.789,-0.862 -9.22,-3.146 -2.428,-0.412 -4.785,-0.874 -7.213,-1.554 -1.818,-0.509 -3.227,-1.498 -4.847,-2.33 -1.377,-0.708 -2.834,-1.23 -4.368,-1.602 -1.863,-0.452 -3.694,-0.34 -5.587,-0.86 -0.093,-0.025 -0.285,0.319 -0.367,0.292 -0.324,-0.108 -0.614,-0.691 -0.785,-0.638 -1.681,0.522 -3.169,-0.45 -4.833,-0.108 -1.178,-1.224 -2.906,-0.979 -4.452,-1.421 -2.964,-0.848 -6.118,0.422 -9.148,-0.579 4.113,-1.842 8.8,-0.61 12.862,-2.679 2.328,-1.186 4.99,-0.084 7.56,-0.844 0.487,-0.144 1.178,-0.346 1.578,0.323 0.134,-0.135 0.316,-0.374 0.374,-0.346 2.45,1.157 4.765,2.431 7.247,3.497 0.341,0.146 0.873,-0.086 1.125,0.116 1.52,1.216 3.463,1.113 4.854,2.333 1.698,-0.502 3.491,-0.122 5.22,-0.746 0.077,-0.027 0.311,0.314 0.344,0.292 1.13,-0.748 2.285,-0.477 3.177,-0.173 0.338,0.115 1.001,0.362 1.306,0.436 1.126,0.276 1.982,0.756 3.161,0.939 0.114,0.018 0.299,-0.322 0.371,-0.294 1.123,0.438 2.165,0.382 2.821,1.546 0.135,-0.135 0.3,-0.373 0.382,-0.346 1.027,0.338 1.676,1.093 2.777,1.334 0.485,0.106 1.097,0.732 1.673,0.908 2.392,0.731 4.235,2.26 6.429,3.155 0.759,0.31 1.635,0.544 2.268,1.04 z"
     id="path424"
     inkscape:connector-curvature="0" />
  <path
     style="fill:#cc7226;fill-opacity:1"
     d="m 275.709,21.689378 c -2.518,-1.725 -4.886,-2.831 -7.328,-4.617 -0.181,-0.133 -0.541,0.037 -0.743,-0.085 -1.007,-0.609 -1.895,-1.19 -2.877,-1.886 -0.539,-0.382 -1.36,-0.371 -1.868,-0.629 -2.544,-1.292 -5.173,-1.85 -7.68,-3.044 0.682,-0.638 1.804,-0.394 2.4,-1.2 0.195,0.28 0.433,0.564 0.786,0.373 1.678,-0.9039999 3.528,-1.0569999 5.204,-0.9669999 1.704,0.092 3.424,0.3969999 5.199,0.6689999 0.307,0.047 0.506,0.57 0.829,0.667 2.228,0.663 4.617,0.138 6.736,0.976 1.591,0.629 3.161,1.452 4.4,2.727 0.252,0.26 -0.073,0.561 -0.353,0.755 0.388,-0.109 0.661,0.097 0.772,0.41 0.084,0.239 0.084,0.541 0,0.78 -0.112,0.312 -0.391,0.413 -0.765,0.464 -1.407,0.19 0.365,-1.19 -0.335,-0.742 -1.273,0.814 -0.527,2.22 -1.272,3.488 -0.28,-0.194 -0.51,-0.412 -0.4,-0.8 0.234,0.522 -0.368,0.812 -0.536,1.128 -0.385,0.725 -1.284,2.14 -2.169,1.533 z"
     id="path428"
     inkscape:connector-curvature="0" />
  <path
     style="fill:#cc7226;fill-opacity:1"
     d="m 243.211,29.037378 c -3.154,-0.794 -6.204,-0.679 -9.22,-1.955 -0.067,-0.028 -0.29,0.319 -0.354,0.292 -1.366,-0.594 -2.284,-1.56 -3.36,-2.606 -0.913,-0.888 -2.571,-0.501 -3.845,-0.988 -0.324,-0.124 -0.527,-0.636 -0.828,-0.675 -1.219,-0.157 -2.146,-1.106 -3.191,-1.677 2.336,-0.795 4.747,-0.764 7.209,-1.148 0.113,-0.018 0.258,0.303 0.391,0.303 0.136,0 0.266,-0.221 0.4,-0.355 0.195,0.28 0.497,0.606 0.754,0.352 0.548,-0.54 1.104,-0.35 1.644,-0.31 0.144,0.01 0.269,0.313 0.402,0.313 0.136,0 0.267,-0.311 0.4,-0.311 0.136,0.001 0.267,0.311 0.4,0.311 0.136,0 0.266,-0.221 0.4,-0.355 0.692,0.782 1.577,0.228 2.399,0.407 1.038,0.227 1.305,1.375 2.379,1.673 4.715,1.304 8.852,3.449 13.215,5.536 0.307,0.147 0.517,0.395 0.407,0.784 0.267,0 0.58,-0.088 0.77,0.044 1.058,0.732 2.099,1.28 2.796,2.378 0.216,0.339 -0.113,0.746 -0.346,0.694 -4.429,-0.995 -8.435,-1.603 -12.822,-2.707 z"
     id="path432"
     inkscape:connector-curvature="0" />
  <path
     style="fill:#cc7226;fill-opacity:1"
     d="m 229.351,73.249378 c -1.592,-1.219 -2.176,-3.25 -3.304,-5.042 -0.214,-0.34 0.06,-0.654 0.377,-0.743 0.56,-0.159 1.103,0.319 1.512,0.521 1.745,0.862 3.28,2.104 5.277,2.243 1.99,2.234 6.25,2.619 6.257,6 0.001,0.859 -1.427,-0.059 -1.857,0.8 -2.451,-1.003 -4.84,-0.9 -7.22,-2.367 -0.617,-0.381 -0.287,-0.834 -1.042,-1.412 z"
     id="path436"
     inkscape:connector-curvature="0" />
  <path
     style="fill:#cc7226;fill-opacity:1"
     d="m 201.813,20.672378 c 0.135,0.001 7.166,0.234 7.149,0.348 -0.045,0.309 -7.775,1.358 -8.139,1.188 -0.164,-0.076 -7.676,2.354 -7.81,2.22 0.268,-0.135 8.534,-3.756 8.8,-3.756 z"
     id="path440"
     inkscape:connector-curvature="0" />
  <path
     style="fill:#000000;fill-opacity:1"
     d="m 217.213,30.428378 c 0,0 -14.8,1.8 -19.2,3 -4.4,1.2 -23,8.8 -26,10.8 0,0 -13.4,5.4 -30.4,25.4 0,0 7.6,-3.4 9.8,-6.2 0,0 13.6,-12.6 13.4,-10 0,0 12.2,-8.6 11.6,-6.4 0,0 24.4,-11.2 22.4,-8 0,0 21.6,-4.6 20.6,-2.6 0,0 18.8,4.4 16,4.6 0,0 -5.8,1.2 0.6,4.8 0,0 -3.4,4.4 -8.8,0.4 -5.4,-4 -2.4,-1.8 -7.4,-0.8 0,0 -2.6,0.8 -7.2,-3.2 0,0 -5.6,-4.6 -14.4,-1 0,0 -30.6,12.6 -32.6,13.2 0,0 -3.6,2.8 -6,6.4 0,0 -5.8,4.4 -8.8,5.8 0,0 -12.8,11.6 -14,13 0,0 -3.4,5.2 -4.2,5.6 0,0 6.4,-3.8 8.4,-5.8 0,0 14,-10 19.4,-10.8 0,0 4.4,-3 5.2,-4.4 0,0 14.4,-9.2 18.6,-9.2 0,0 9.2,5.2 11.6,-1.8 0,0 5.8,-1.8 11.4,-0.6 0,0 3.2,-2.6 2.4,-4.8 0,0 1.6,-1.8 2.6,2 0,0 3.4,3.6 8.2,1.6 0,0 4,-0.2 2,2.2 0,0 -4.4,3.8 -16.2,4 0,0 -12.4,0.6 -28.8,8.2 0,0 -29.8,10.4 -39,20.8 0,0 -6.4,8.8 -11.8,10 0,0 -5.8,0.8 -11.8,8.200002 0,0 9.8,-5.800002 18.8,-5.800002 0,0 4,-2.4 0.2,1.200002 0,0 -3.6,7.6 -2,13 0,0 -0.6,5.2 -1.4,6.8 0,0 -7.8,12.8 -7.8,15.2 0,2.4 1.2,12.2 1.6,12.8 0.4,0.6 -1,-1.6 2.8,0.8 3.8,2.4 6.6,4 7.4,6.8 0.8,2.8 -2,-5.4 -2.2,-7.2 -0.2,-1.8 -4.4,-9 -3.6,-11.4 0,0 1,1 1.8,2.4 0,0 -0.6,-0.6 0,-4.2 0,0 0.8,-5.2 2.2,-8.4 1.4,-3.2 3.4,-7 3.8,-7.8 0.4,-0.8 0.4,-6.6 1.8,-4 l 3.4,2.6 c 0,0 -2.8,-2.6 -0.6,-4.8 0,0 -1,-5.6 0.8,-8.2 0,0 7,-8.400002 8.6,-9.400002 1.6,-1 0.2,-0.6 0.2,-0.6 0,0 6,-4.2 0.2,-2.6 0,0 -4,1.6 -7,1.6 0,0 -7.6,2 -3.6,-2.2 4,-4.2 14,-9.6 17.8,-9.4 l 0.8,1.6 11.2,-2.4 -1.2,0.8 c 0,0 -0.2,-0.2 4,-0.6 4.2,-0.4 10,1 11.4,-0.8 1.4,-1.8 4.8,-2.8 4.4,-1.4 -0.4,1.4 -0.6,3.4 -0.6,3.4 0,0 5,-5.8 4.4,-3.6 -0.6,2.2 -8.8,7.4 -10.2,13.6 l 10.4,-8.2 3.6,-3 c 0,0 3.6,2.2 3.8,0.6 0.2,-1.6 4.8,-7.4 6,-7.2 1.2,0.2 3.2,-2.6 3,0 -0.2,2.6 7.4,8 7.4,8 0,0 3.2,-1.8 4.6,-0.4 1.4,1.4 5.6,-19.8 5.6,-19.8 l 25,-10.6 43.601,-3.4 -17,-6.8 -61.001,-11.4 z"
     id="path444"
     inkscape:connector-curvature="0" />
  <path
     style="fill:none;stroke:#4c0000;stroke-width:2"
     d="m 235.413,229.42838 c 0,0 -15,-16.8 -23.4,-19.4 0,0 -13.4,-6.8 -38,1"
     id="path448"
     inkscape:connector-curvature="0" />
  <path
     style="fill:none;stroke:#4c0000;stroke-width:2"
     d="m 208.813,208.62838 c 0,0 -25.2,-8 -40.6,-3.8 0,0 -18.4,2 -26.8,15.8"
     id="path452"
     inkscape:connector-curvature="0" />
  <path
     style="fill:none;stroke:#4c0000;stroke-width:2"
     d="m 205.213,207.42838 c 0,0 -17,-7.2 -31.8,-9.4 0,0 -16.6,-2.6 -33.2,4.6 0,0 -12.2,6 -17.6,16.2"
     id="path456"
     inkscape:connector-curvature="0" />
  <path
     style="fill:none;stroke:#4c0000;stroke-width:2"
     d="m 206.213,207.82838 c 0,0 -15.4,-11 -16.4,-12.4 0,0 -7,-11 -20,-11.4 0,0 -21.4,0.8 -38.6,8.8"
     id="path460"
     inkscape:connector-curvature="0" />
  <path
     style="fill:#000000;fill-opacity:1"
     d="m 204.908,198.83538 c 1.542,1.463 28.505,30.393 28.505,30.393 35.2,36.601 7.2,2.4 7.2,2.4 -7.6,-4.8 -16.8,-23.6 -16.8,-23.6 -1.2,-2.8 14,7.2 14,7.2 4,0.8 17.6,20 17.6,20 -6.8,-2.4 -2,4.8 -2,4.8 2.8,2 23.201,17.601 23.201,17.601 3.6,4 7.6,5.6 7.6,5.6 14,-5.2 7.6,8 7.6,8 2.4,6.8 8,-4.8 8,-4.8 11.2,-16.801 -5.2,-14.4 -5.2,-14.4 -30.001,2.8 -36.801,-13.201 -36.801,-13.201 -2.4,-2.4 6.4,0 6.4,0 8.401,2 -7.2,-12.4 -7.2,-12.4 2.4,0 11.6,6.8 11.6,6.8 10.401,9.2 12.401,7.2 12.401,7.2 18,-8.8 28.4,-1.2 28.4,-1.2 2,1.6 -3.6,8.4 -2,13.601 1.6,5.2 6.4,17.6 6.4,17.6 -2.4,1.6 -2,12.4 -2,12.4 16.8,23.2 7.2,21.2 7.2,21.2 -15.6,-0.4 -0.8,7.2 -0.8,7.2 3.2,2 12,9.2 12,9.2 -2.8,-1.2 -4.4,4 -4.4,4 4.8,4 2,8.8 2,8.8 -6,1.2 -7.2,5.2 -7.2,5.2 6.8,8 -3.2,8.4 -3.2,8.4 3.6,4.4 -1.2,16.4 -1.2,16.4 -4.8,0 -11.2,5.6 -11.2,5.6 2.4,4.8 -8,10.4 -8,10.4 -8.4,1.6 -5.6,8.4 -5.6,8.4 -8,6 -10.4,22 -10.4,22 -0.8,10.4 -3.2,13.6 2,11.6 5.2,-2 4.4,-14.4 4.4,-14.4 -4.8,-15.6 38,-31.6 38,-31.6 4,-1.6 4.8,-6.8 4.8,-6.8 2,0.4 10.8,8 10.8,8 7.6,11.2 8,2 8,2 1.2,-3.6 -0.4,-9.6 -0.4,-9.6 6,-21.6 -8,-28 -8,-28 -10,-33.6 4,-25.2 4,-25.2 2.8,5.6 13.6,10.8 13.6,10.8 l 3.6,-2.4 c -1.6,-4.8 6.8,-10.8 6.8,-10.8 2.8,6.4 8.8,-1.6 8.8,-1.6 3.6,-24.4 16,-10 16,-10 4,1.2 5.2,-5.6 5.2,-5.6 3.6,-10.4 0,-24 0,-24 3.6,-0.4 13.2,5.6 13.2,5.6 2.8,-3.6 -6.4,-20.4 -2.4,-18 4,2.4 8.4,4 8.4,4 0.8,-2 -9.2,-14.4 -9.2,-14.4 -4.4,-2.801 -9.6,-23.201 -9.6,-23.201 7.2,3.6 -2.8,-11.6 -2.8,-11.6 0,-3.2 6,-14.4 6,-14.4 -0.8,-6.8 0,-6.4 0,-6.4 2.8,1.2 10.8,2.8 4,-3.6 -6.8,-6.4 0.8,-11.2 0.8,-11.2 4.4,-2.8 -9.2,-2.4 -9.2,-2.4 -5.2,-4.4 -4.8,-8.4 -4.8,-8.4 8,2 -6.4,-12.4 -8.8,-16 -2.4,-3.6 7.2,-8.8 7.2,-8.8 13.2,-3.6 1.6,-6.8 1.6,-6.8 -19.6,0.4 -8.8,-10.4 -8.8,-10.4 6,0.4 4.4,-2 4.4,-2 -5.2,-1.2 -14.8,-7.6 -14.8,-7.6 -4,-3.6 -0.4,-2.8 -0.4,-2.8 16.8,1.2 -12,-10 -12,-10 8,0 -10,-10.400002 -10,-10.400002 -2,-1.6 -5.2,-9.2 -5.2,-9.2 -6,-5.2 -10.8,-12 -10.8,-12 -0.4,-4.4 -5.2,-9.2 -5.2,-9.2 -11.6,-13.6 -17.2,-13.2 -17.2,-13.2 -14.8,-3.6 -20,-2.8 -20,-2.8 l -52.801,4.4 c -26.4,12.8 -18.6,33.8 -18.6,33.8 6.4,8.4 15.6,4.6 15.6,4.6 4.6,-6.2 16.2,-4 16.2,-4 20.401,3.2 17.801,-0.4 17.801,-0.4 -2.4,-4.6 -18.601,-10.8 -18.801,-11.4 -0.2,-0.6 -9,-4 -9,-4 -3,-1.2 -7.4,-10.4 -7.4,-10.4 -3.2,-3.4 12.6,2.4 12.6,2.4 -1.2,1 6.2,5 6.2,5 17.401,-1 28.001,9.8 28.001,9.8 10.8,16.6 11,8.4 11,8.4 2.8,-9.4 -9,-30.6 -9,-30.6 0.4,-2 8.6,4.6 8.6,4.6 1.4,-2 2.2,3.8 2.2,3.8 0.2,2.4 4,10.4 4,10.4 2.8,13 6.4,5.6 6.4,5.6 l 4.6,9.4 c 1.4,2.6 -4.6,10.2 -4.6,10.2 -0.2,2.800002 0.6,2.600002 -5,10.200002 -5.6,7.6 -2.2,12 -2.2,12 -1.4,6.6 7.4,6.2 7.4,6.2 2.6,2.2 6,2.2 6,2.2 1.8,2 4.2,1.4 4.2,1.4 1.6,-3.8 7.8,-1.8 7.8,-1.8 1.4,-2.4 9.6,-2.8 9.6,-2.8 1,-2.6 1.4,-4.2 4.8,-4.8 3.4,-0.6 -21.2,-43.600002 -21.2,-43.600002 6.4,-0.8 -1.8,-13.2 -1.8,-13.2 -2.2,-6.6 9.2,8 11.4,9.4 2.2,1.4 3.2,3.6 1.6,3.4 -1.6,-0.2 -3.4,2 -2,2.2 1.4,0.2 14.4,15.2 17.8,25.400002 3.4,10.2 9.4,14.2 15.6,20.2 6.2,6 5.4,30.2 5.4,30.2 -0.4,8.8 5.6,19.4 5.6,19.4 2,3.8 -2.2,22 -2.2,22 -2,2.2 -0.6,3 -0.6,3 1,1.2 7.8,14.4 7.8,14.4 -1.8,-0.2 1.8,3.4 1.8,3.4 5.2,6 -1.2,3 -1.2,3 -6,-1.6 1,8.2 1,8.2 1.2,1.8 -7.8,-2.8 -7.8,-2.8 -9.2,-0.6 2.4,6.6 2.4,6.6 8.6,7.2 -2.8,2.8 -2.8,2.8 -4.6,-1.8 -1.4,5 -1.4,5 3.2,1.6 20.4,8.6 20.4,8.6 0.4,3.801 -2.6,8.801 -2.6,8.801 0.4,4 -1.8,7.4 -1.8,7.4 -1.2,8.2 -1.8,9 -1.8,9 -4.2,0.2 -11.6,14 -11.6,14 -1.8,2.6 -12,14.6 -12,14.6 -2,7 -20,-0.2 -20,-0.2 -6.6,3.4 -4.6,0 -4.6,0 -0.4,-2.2 4.4,-8.2 4.4,-8.2 7,-2.6 4.4,-13.4 4.4,-13.4 4,-1.4 -7.2,-4.2 -7,-5.4 0.2,-1.2 6,-2.6 6,-2.6 8,-2 3.6,-4.4 3.6,-4.4 -0.6,-4 2.4,-9.6 2.4,-9.6 11.6,-0.8 0,-17.001 0,-17.001 -10.8,-7.6 -11.8,-13.4 -11.8,-13.4 12.6,-8.2 4.4,-20.6 4.6,-24.2 0.2,-3.6 1.4,-25.2 1.4,-25.2 -2,-6.2 -5,-19.8 -5,-19.8 2.2,-5.2 9.6,-17.8 9.6,-17.8 2.8,-4.2 11.6,-9 9.4,-12 -2.2,-3 -10,-1.2 -10,-1.2 -7.8,-1.4 -7.2,3.8 -7.2,3.8 -1.6,1 -2.4,6 -2.4,6 -0.721,7.933 -9.6,14.2 -9.6,14.2 -11.2,6.2 -2,10.2 -2,10.2 6,6.6 -3.8,6.8 -3.8,6.8 -11,-1.8 -2.8,8.4 -2.8,8.4 10.8,12.8 7.8,15.6 7.8,15.6 -10.2,1 2.4,10.2 2.4,10.2 0,0 -0.8,-2 -0.6,-0.2 0.2,1.8 3.2,6 4,8 0.8,2 -3.2,2.2 -3.2,2.2 0.6,9.6 -14.8,5.4 -14.8,5.4 0,0 0,0 -1.6,0.2 -1.6,0.2 -12.8,-0.6 -18.6,-2.8 -5.8,-2.2 -12.6,-2.2 -12.6,-2.2 0,0 -4,1.8 -11.601,1.6 -7.6,-0.2 -15.6,2.6 -15.6,2.6 -4.4,-0.4 4.2,-4.8 4.4,-4.6 0.2,0.2 5.8,-5.4 -2.2,-4.8 -21.797,1.635 -32.6,-8.6 -32.6,-8.6 -2,-1.4 -4.6,-4.2 -4.6,-4.2 -10,-2 1.4,12.4 1.4,12.4 1.2,1.4 -0.2,2.4 -0.2,2.4 -0.8,-1.6 -8.6,-7 -8.6,-7 -2.811,-0.973 -4.174,-2.307 -6.505,-4.793 z"
     id="path464"
     inkscape:connector-curvature="0" />
  <path
     style="fill:#4c0000;fill-opacity:1"
     d="m 181.013,187.22838 c 0,0 11.6,5.6 14.2,8.4 2.6,2.8 16.6,14.2 16.6,14.2 0,0 -5.4,-2 -8,-3.8 -2.6,-1.8 -13.4,-10 -13.4,-10 0,0 -3.8,-6 -9.4,-8.8 z"
     id="path468"
     inkscape:connector-curvature="0" />
  <path
     style="fill:#99cc32;fill-opacity:1"
     d="m 123.004,156.03138 c 0.337,-0.148 -0.187,-2.86 -0.391,-3.403 -1.022,-2.726 -10,-4.2 -10,-4.2 -0.227,1.365 -0.282,2.961 -0.176,4.599 0,0 4.868,5.519 10.567,3.004 z"
     id="path472"
     inkscape:connector-curvature="0" />
  <path
     style="fill:#659900;fill-opacity:1"
     d="m 123.004,155.83138 c -0.449,0.158 -0.015,-2.734 -0.191,-3.203 -1.022,-2.726 -10.2,-4.3 -10.2,-4.3 -0.227,1.365 -0.282,2.961 -0.176,4.599 0,0 4.268,5.119 10.567,2.904 z"
     id="path476"
     inkscape:connector-curvature="0" />
  <path
     style="fill:#000000;fill-opacity:1"
     d="m 118.613,155.97438 c -0.625,0 -1.131,-1.14 -1.131,-2.546 0,-1.405 0.506,-2.545 1.131,-2.545 0.625,0 1.132,1.14 1.132,2.545 0,1.406 -0.507,2.546 -1.132,2.546 z"
     id="path480"
     inkscape:connector-curvature="0" />
  <path
     style="fill:#000000;fill-opacity:1"
     d="M 118.613,153.42838 z"
     id="path484"
     inkscape:connector-curvature="0" />
  <path
     style="fill:#000000;fill-opacity:1"
     d="m 73.013,254.02938 c 0,0 -5.6,10 19.2,4 0,0 14,-1.2 16.4,-3.6 1.2,0.8 9.566,3.733 12.4,4.4 6.8,1.6 15.2,-8.401 15.2,-8.401 0,0 4.6,-10.5 7.4,-10.5 2.8,0 -0.4,1.6 -0.4,1.6 0,0 -6.6,10.101 -6.2,11.701 0,0 -5.2,20 -21.2,20.8 0,0 -16.15,0.95 -14.8,6.8 0,0 8.8,-2.4 11.2,0 0,0 10.8,-0.4 2.8,6 l -6.8,11.6 c 0,0 0.14,3.918 -10,0.4 -9.8,-3.4 -20.1,-16.3 -20.1,-16.3 0,0 -15.95,-14.55 -5.1,-28.5 z"
     id="path488"
     inkscape:connector-curvature="0" />
  <path
     style="fill:#e59999;fill-opacity:1"
     d="m 71.813,258.02938 c 0,0 -2,9.6 34.8,-0.8 0,0 4.4,0 6.8,0.8 2.4,0.8 14.4,3.6 16.4,2.4 0,0 -7.2,13.6 -18.8,12 0,0 -13.2,1.6 -12.8,6.4 0,0 4,7.2 8.8,9.6 0,0 2.8,2.4 2.4,5.6 -0.4,3.2 -3.2,4.8 -5.2,5.6 -2,0.8 -5.2,-2.4 -6.8,-2.4 -1.6,0 -10,-6.4 -14.4,-11.2 -4.4,-4.8 -12.8,-16.8 -12.4,-19.6 0.4,-2.8 1.2,-8.4 1.2,-8.4 z"
     id="path492"
     inkscape:connector-curvature="0" />
  <path
     style="fill:#b26565;fill-opacity:1"
     d="m 75.013,275.47938 c 2.6,3.95 5.8,8.15 8,10.55 4.4,4.8 12.8,11.2 14.4,11.2 1.6,0 4.8,3.2 6.8,2.4 2,-0.8 4.8,-2.4 5.2,-5.6 0.4,-3.2 -2.4,-5.6 -2.4,-5.6 -3.066,-1.533 -5.806,-5.025 -7.385,-7.348 0,0 0.185,2.548 -5.015,1.748 -5.2,-0.8 -10.4,-3.6 -12,-6.8 -1.6,-3.2 -4,-5.6 -2.4,-2 1.6,3.6 4,7.2 5.6,7.6 1.6,0.4 1.2,1.6 -1.2,1.2 -2.4,-0.4 -5.2,-0.8 -9.6,-6 z"
     id="path496"
     inkscape:connector-curvature="0" />
  <path
     style="fill:#992600;fill-opacity:1"
     d="m 72.413,254.42938 c 0,0 1.8,-13.601 3,-17.601 0,0 -0.8,-6.8 1.6,-11 2.4,-4.2 4.4,-10.4 7.4,-15.8 3,-5.4 3.2,-9.4 7.2,-11 4,-1.6 10,-10.2 12.8,-11.2 2.8,-1 2.6,-0.2 2.6,-0.2 0,0 6.8,-14.8 20.4,-10.8 0,0 -16.2,-2.8 -0.4,-12.2 0,0 -4.8,1.1 -1.5,-5.9 2.201,-4.668 1.7,2.1 -9.3,13.9 0,0 -5,8.6 -10.2,11.6 -5.2,3 -17.2,10 -18.4,13.8 -1.2,3.8 -4.4,9.6 -6.4,11.2 -2,1.6 -4.8,5.8 -5.2,9.2 0,0 -1.2,4 -2.6,5.2 -1.4,1.2 -1.6,4.4 -1.6,6.4 0,2 -2,4.8 -1.8,7.2 0,0 0.8,19.001 0.4,21.001 l 2,-3.8 z"
     id="path500"
     inkscape:connector-curvature="0" />
  <path
     style="fill:#ffffff;fill-opacity:1"
     d="m 63.813,259.02938 c 0,0 -2,-1.4 -6.4,4.6 0,0 7.3,33 7.3,34.4 0,0 1.1,-2.1 -0.2,-9.3 -1.3,-7.2 -2.2,-19.9 -2.2,-19.9 l 1.5,-9.8 z"
     id="path504"
     inkscape:connector-curvature="0" />
  <path
     style="fill:#992600;fill-opacity:1"
     d="m 85.413,198.42838 c 0,0 -17.6,3.2 -17.2,32.4 l -0.8,24.801 c 0,0 -1.2,-25.601 -2.4,-27.201 -1.2,-1.6 2.8,-12.8 -0.4,-6.8 0,0 -14,14 -6,35.201 0,0 1.5,3.3 -1.5,-1.3 0,0 -4.6,-12.601 -3.5,-19.001 0,0 0.2,-2.2 2.1,-5 0,0 8.6,-11.7 11.3,-14 0,0 1.8,-14.4 17.2,-19.6 0,0 5.7,-2.3 1.2,0.5 z"
     id="path508"
     inkscape:connector-curvature="0" />
  <path
     style="fill:#000000;fill-opacity:1"
     d="m 224.813,132.22838 c 0.66,-0.354 0.651,-1.324 1.231,-1.497 1.149,-0.344 1.313,-1.411 1.831,-2.195 0.873,-1.319 1.066,-2.852 1.648,-4.343 0.272,-0.7 0.299,-1.655 -0.014,-2.315 -1.174,-2.481 -1.876,-4.93 -3.318,-7.356 -0.268,-0.45 -0.53,-1.244 -0.731,-1.842 -0.463,-1.384 -1.72,-2.375 -2.58,-3.695 -0.288,-0.441 0.237,-1.366 -0.479,-1.45 -0.897,-0.105 -2.346,-0.685 -2.579,0.341 -0.588,2.587 0.423,5.11 1.391,7.552 -0.782,0.692 -0.448,1.613 -0.296,2.38 0.71,3.606 -0.488,6.958 -1.249,10.432 -0.023,0.104 0.319,0.302 0.291,0.364 -1.222,2.686 -2.674,5.131 -4.493,7.512 -0.758,0.992 -1.63,1.908 -2.127,2.971 -0.368,0.787 -0.776,1.753 -0.526,2.741 -3.435,2.78 -5.685,6.625 -8.296,10.471 -0.462,0.68 -0.171,1.889 0.38,2.158 0.813,0.398 1.769,-0.626 2.239,-1.472 0.389,-0.698 0.742,-1.348 1.233,-1.991 0.133,-0.175 -0.046,-0.594 0.089,-0.715 2.633,-2.347 4.302,-5.283 6.755,-7.651 1.95,-0.329 3.487,-1.327 5.235,-2.34 0.308,-0.179 0.832,0.07 1.122,-0.125 1.753,-1.177 1.751,-3.213 1.857,-5.123 0.05,-0.884 0.246,-2.201 1.386,-2.812 z"
     id="path512"
     inkscape:connector-curvature="0" />
  <path
     style="fill:#000000;fill-opacity:1"
     d="m 215.972,127.76238 c 0.124,-0.077 -0.031,-0.5 0.078,-0.716 0.162,-0.324 0.565,-0.512 0.727,-0.836 0.109,-0.216 -0.054,-0.596 0.082,-0.738 2.333,-2.447 2.59,-5.471 1.554,-8.444 1.024,-0.62 1.085,-1.882 0.66,-2.729 -0.853,-1.7 -1.046,-3.626 -2.021,-5.169 -0.802,-1.269 -2.38,-2.513 -3.751,-1.21 -0.421,0.4 -0.742,1.187 -0.464,1.899 0.064,0.163 0.349,0.309 0.322,0.391 -0.107,0.324 -0.653,0.548 -0.659,0.82 -0.03,1.496 -0.984,3.007 -0.354,4.336 0.772,1.629 1.591,3.486 2.267,5.262 -1.234,2.116 -0.201,4.565 -1.954,6.442 -0.136,0.146 -0.127,0.532 -0.005,0.734 0.292,0.486 0.698,0.892 1.184,1.184 0.202,0.121 0.55,0.123 0.75,-0.001 0.578,-0.362 0.976,-0.849 1.584,-1.225 z"
     id="path516"
     inkscape:connector-curvature="0" />
  <path
     style="fill:#000000;fill-opacity:1"
     d="m 278.784,117.45138 c 1.389,1.792 1.679,4.587 -0.37,5.977 0.55,3.309 3.901,1.33 6,0.8 -0.109,-0.388 0.118,-0.732 0.401,-0.737 1.057,-0.015 1.737,-1.047 2.799,-0.863 0.434,-1.557 2.072,-2.259 2.716,-3.639 1.726,-3.695 1.135,-7.968 -1.449,-11.214 -0.202,-0.254 0.015,-0.771 -0.109,-1.133 -0.756,-2.211 -2.824,-2.526 -4.758,-3.214 -1.177,-3.875002 -1.838,-7.906002 -3.6,-11.600002 -1.614,-0.25 -2.312,-1.989 -3.649,-2.709 -1.333,-0.719 -1.901,0.86 -1.86,1.906 0.007,0.205 0.459,0.429 0.289,0.794 -0.076,0.164 -0.336,0.275 -0.336,0.409 10e-4,0.135 0.222,0.266 0.356,0.4 -0.918,0.82 -2.341,1.297 -2.636,2.442 -0.954,3.71 1.619,6.835002 3.287,10.036002 0.591,1.135 -0.145,2.406 -0.905,3.614 -0.438,0.695 -0.33,1.822 -0.054,2.678 0.752,2.331 2.343,4.07 3.878,6.053 z"
     id="path520"
     inkscape:connector-curvature="0" />
  <path
     style="fill:#000000;fill-opacity:1"
     d="m 241.624,135.83738 c -1.487,1.851 -4.899,4.42 -1.982,6.348 0.194,0.129 0.564,0.133 0.737,-0.001 2.021,-1.565 4.024,-2.468 6.46,-3.05 0.124,-0.029 0.398,0.438 0.767,0.277 1.613,-0.703 3.623,-0.645 4.807,-1.983 3.767,0.224 7.332,-0.892 10.723,-2.2 1.161,-0.448 2.431,-1.007 3.632,-1.509 1.376,-0.576 2.58,-1.504 3.692,-2.645 0.133,-0.136 0.487,-0.046 0.754,-0.046 -0.04,-0.863 0.922,-0.99 1.169,-1.612 0.092,-0.232 -0.058,-0.628 0.075,-0.73 2.138,-1.63 3.058,-3.648 1.889,-6.025 -0.285,-0.578 -0.534,-1.196 -1.1,-1.672 -1.085,-0.911 -2.187,-0.057 -3.234,-0.361 -0.159,0.628 -0.888,0.456 -1.274,0.654 -0.859,0.439 -2.192,-0.146 -3.051,0.292 -1.362,0.695 -2.603,0.864 -4.025,1.241 -0.312,0.082 -1.09,-0.014 -1.25,0.613 -0.134,-0.134 -0.282,-0.368 -0.388,-0.346 -1.908,0.396 -3.168,0.61 -4.469,2.302 -0.103,0.133 -0.545,-0.046 -0.704,0.089 -0.957,0.808 -1.362,2.042 -2.463,2.714 -0.201,0.123 -0.553,-0.045 -0.747,0.084 -0.646,0.431 -1.013,1.072 -1.655,1.519 -0.329,0.229 -0.729,-0.096 -0.697,-0.352 0.245,-1.947 0.898,-3.734 0.323,-5.61 2.077,-2.52 4.594,-4.469 6.4,-7.2 0.015,-2.166 0.707,-4.312 0.594,-6.389 -0.01,-0.193 -0.298,-0.926 -0.424,-1.273 -0.312,-0.854 0.594,-1.92 -0.25,-2.644 -1.404,-1.203 -2.696,-0.327 -3.52,1.106 -1.838,0.39 -3.904,1.083 -5.482,-0.151 -1.007,-0.787 -1.585,-1.693 -2.384,-2.749 -0.985,-1.302 -0.65,-2.738 -0.58,-4.302 0.006,-0.128 -0.309,-0.264002 -0.309,-0.398002 0.001,-0.135 0.221,-0.266 0.355,-0.4 -0.706,-0.626 -0.981,-1.684 -2,-2 0.305,-1.092 -0.371,-1.976 -1.242,-2.278 -1.995,-0.691 -3.672,1.221 -5.564,1.294 -0.514,0.019 -0.981,-1.019 -1.63,-1.344 -0.432,-0.216 -1.136,-0.249 -1.498,0.017 -0.688,0.504 -1.277,0.618 -2.035,0.823 -1.617,0.436 -2.895,1.53 -4.375,2.385 -1.485,0.857 -2.44,2.294002 -3.52,3.614002 -0.941,1.152 -1.077,3.566 0.343,4.066 1.843,0.65 3.147,-2.053 5.113,-1.727 0.312,0.051 0.518,0.362 0.408,0.75 0.389,0.109 0.607,-0.12 0.8,-0.4 0.858,1.019 2.022,1.356 2.96,2.229 0.97,0.904 2.716,0.486 3.731,1.483 1.529,1.502 0.97,4.183 2.909,5.488 -0.586,1.313 -1.193,2.59 -1.528,4.017 -0.282,1.206 0.712,2.403 1.923,2.312 1.258,-0.094 1.52,-0.853 2.005,-1.929 0.267,0.267 0.736,0.564 0.695,0.78 -0.457,2.387 -1.484,4.38 -1.942,6.811 -0.059,0.317 -0.364,0.519 -0.753,0.409 -0.468,4.149 -4.52,6.543 -7.065,9.708 -0.403,0.502 -0.407,1.751 0.002,2.154 1.403,1.387 3.363,-0.159 5.063,-0.662 0.213,-1.206 1.072,-2.148 2.404,-2.092 0.256,0.01 0.491,-0.532 0.815,-0.662 0.348,-0.138 0.85,0.086 1.136,-0.112 1.729,-1.195 3.137,-2.301 4.875,-3.49 0.192,-0.131 0.536,0.028 0.752,-0.08 0.325,-0.162 0.512,-0.549 0.835,-0.734 0.348,-0.2 0.59,0.09 0.783,0.37 -0.646,0.349 -0.65,1.306 -1.232,1.508 -0.775,0.268 -1.336,0.781 -2.01,1.228 -0.292,0.193 -0.951,-0.055 -1.055,0.124 -0.598,1.028 -1.782,1.466 -2.492,2.349 z"
     id="path524"
     inkscape:connector-curvature="0" />
  <path
     style="fill:#000000;fill-opacity:1"
     d="m 186.213,86.428378 c 0,0 -9.238,-2.872 -20.4,22.800002 0,0 -2.4,5.2 -4.8,7.2 -2.4,2 -13.6,5.6 -15.6,9.6 l -10.4,16 c 0,0 14.8,-16 18,-18.4 0,0 8,-8.4 4.8,-1.6 0,0 -14,10.8 -12.8,20 0,0 -5.6,14.4 -6.4,16.4 0,0 16,-32 18.4,-33.2 2.4,-1.2 3.6,-1.2 2.4,2.4 -1.2,3.6 -1.6,20 -4.4,22 0,0 8,-20.4 7.2,-23.6 0,0 3.2,-3.6 5.6,1.6 l -1.2,16 4.4,12 c 0,0 -2.4,-11.2 -0.8,-26.8 0,0 -2,-10.4 2,-4.8 4,5.6 13.6,11.6 13.6,16.4 0,0 -5.2,-17.6 -14.4,-22.4 l -4,6 -1.2,-2 c 0,0 -3.6,-0.8 0.8,-7.6 4.4,-6.8 4,-7.6 4,-7.6 0,0 6.4,7.2 8,7.2 0,0 13.2,-7.6 14.4,16.8 0,0 6.8,-14.4 -2.4,-21.2 0,0 -14.8,-2 -13.6,-7.2 l 7.2,-12.400002 c 3.6,-5.2 2,-2.4 2,-2.4 z"
     id="path528"
     inkscape:connector-curvature="0" />
  <path
     style="fill:#000000;fill-opacity:1"
     d="m 166.213,102.82838 c 0,0 -12.8,0 -16,5.2 l -7.2,9.6 c 0,0 17.2,-10 21.2,-11.2 4,-1.2 2,-3.6 2,-3.6 z"
     id="path532"
     inkscape:connector-curvature="0" />
  <path
     style="fill:#000000;fill-opacity:1"
     d="m 126.213,109.22838 c 0,0 -2,1.2 -2.4,4 -0.4,2.8 -2.8,3.2 -2,6 0.8,2.8 2.8,5.2 2.8,1.2 0,-4 1.6,-6 2.4,-7.2 0.8,-1.2 2.4,-5.6 -0.8,-4 z"
     id="path536"
     inkscape:connector-curvature="0" />
  <path
     style="fill:#000000;fill-opacity:1"
     d="m 117.413,170.42838 c 0,0 -8.4,-4 -11.6,-7.6 -3.2,-3.6 -2.748,1.566 -7.6,1.2 -5.847,-0.441 -4.8,-16.4 -4.8,-16.4 l -4,7.6 c 0,0 -1.2,14.4 6.8,12 3.907,-1.172 5.2,0.4 3.6,1.2 -1.6,0.8 5.6,1.2 2.8,2.8 -2.8,1.6 11.6,-3.6 9.2,6.8 l 5.6,-7.6 z"
     id="path540"
     inkscape:connector-curvature="0" />
  <path
     style="fill:#000000;fill-opacity:1"
     d="m 104.813,184.82838 c 0,0 -15.4,4.4 -19,-5.2 0,0 -4.8,2.4 -2.6,5.4 2.2,3 3.4,3.4 3.4,3.4 0,0 5.4,1.2 4.8,2 -0.6,0.8 -3,4.2 -3,4.2 0,0 10.2,-6 16.4,-9.8 z"
     id="path544"
     inkscape:connector-curvature="0" />
  <path
     style="fill:#ffffff;fill-opacity:1"
     d="m 333.214,263.02938 c -0.427,2.134 -2.098,2.935 -4,3.6 -1.917,-0.958 -4.515,-4.064 -6.4,-2 -0.474,-0.48 -1.253,-0.54 -1.597,-1.202 -0.465,-0.898 -0.193,-1.944 -0.535,-2.742 -0.545,-1.272 -1.254,-2.638 -1.068,-4.056 1.806,-0.712 2.401,-2.618 1.927,-4.381 -0.069,-0.257 -0.498,-0.454 -0.298,-0.803 0.186,-0.323 0.504,-0.55 0.771,-0.817 -0.135,0.135 -0.28,0.368 -0.391,0.348 -0.61,-0.106 -0.486,-0.743 -0.356,-1.13 0.585,-1.746 2.599,-2.01 3.947,-0.818 0.256,-0.565 0.765,-0.371 1.2,-0.4 -0.05,-0.579 0.358,-1.106 0.556,-1.526 0.518,-1.098 2.147,0.008 2.944,-0.604 1.076,-0.825 2.139,-1.524 3.217,-0.921 1.809,1.013 3.518,2.225 4.717,3.966 0.575,0.834 0.815,2.115 0.757,3.073 -0.038,0.647 -1.419,0.295 -1.762,1.224 -0.645,1.748 1.186,2.267 1.942,3.605 0.198,0.349 -0.066,0.653 -0.381,0.751 -0.411,0.128 -1.195,-0.061 -1.057,0.392 0.972,3.193 -1.784,3.871 -4.133,4.441 z"
     id="path548"
     inkscape:connector-curvature="0" />
  <path
     style="fill:#ffffff;fill-opacity:1"
     d="m 323.613,282.62938 c -0.007,-1.738 -1.608,-3.494 -0.399,-5.2 0.135,0.134 0.266,0.355 0.4,0.355 0.135,0 0.266,-0.221 0.4,-0.355 1.495,2.216 5.147,3.144 5.005,5.99 -0.022,0.447 -1.109,1.365 -0.205,2.01 -1.813,1.348 -1.868,3.718 -2.8,5.6 -1.238,-0.286 -2.45,-0.649 -3.6,-1.2 0.352,-1.486 0.235,-3.17 1.055,-4.49 0.434,-0.698 0.147,-1.777 0.144,-2.71 z"
     id="path552"
     inkscape:connector-curvature="0" />
  <path
     style="fill:#cccccc;fill-opacity:1"
     d="m 157.413,273.62938 c 0,0 -16.858,10.136 -2.8,-5.2 8.8,-9.6 18.8,-15.2 18.8,-15.2 0,0 10.4,-4.401 14,-5.601 3.6,-1.2 18.8,-6.4 22,-6.8 3.2,-0.4 12.8,-4.4 19.6,-0.4 6.8,4 14.8,8.4 14.8,8.4 0,0 -16.4,-8.4 -20,-6 -3.6,2.4 -10.8,2 -16.8,5.2 0,0 -14.8,4.401 -18,6.401 -3.2,2 -13.6,13.6 -15.2,12.8 -1.6,-0.8 0.4,-1.2 1.6,-4 1.2,-2.8 -0.8,-4.4 -8.8,2 -8,6.4 -9.2,8.4 -9.2,8.4 z"
     id="path556"
     inkscape:connector-curvature="0" />
  <path
     style="fill:#000000;fill-opacity:1"
     d="m 164.818,267.66238 c 0,0 1.41,-13.04 9.888,-11.375 0,0 8.226,-4.17 10.948,-6.138 0,0 8.139,-1.702 9.449,-2.319 18.479,-8.7 33.198,-4.181 33.745,-5.301 0.546,-1.119 20.171,5.998 23.78,10.084 0.391,0.443 -10.231,-5.597 -19.929,-7.488 -8.273,-1.614 -29.875,0.247 -40.781,5.783 -2.973,1.509 -11.918,7.293 -14.449,7.182 -2.531,-0.112 -12.651,9.572 -12.651,9.572 z"
     id="path560"
     inkscape:connector-curvature="0" />
  <path
     style="fill:#cccccc;fill-opacity:1"
     d="m 161.013,293.22938 c 0,0 -15.2,-2.4 1.6,-4 0,0 18,-2 22,-7.2 0,0 13.6,-9.2 16.4,-9.6 2.8,-0.4 32.8,-7.6 33.2,-10 0.4,-2.4 6,-2.4 7.6,-1.6 1.6,0.8 0.8,2 -2,2.8 -2.8,0.8 -34,17.2 -40.4,18.4 -6.4,1.2 -18,8.8 -22.8,10 -4.8,1.2 -15.6,1.2 -15.6,1.2 z"
     id="path564"
     inkscape:connector-curvature="0" />
  <path
     style="fill:#000000;fill-opacity:1"
     d="m 180.533,285.83138 c 0,0 -8.582,-0.829 0.019,-1.648 0,0 8.816,-3.424 10.864,-6.087 0,0 6.964,-4.711 8.397,-4.915 1.434,-0.205 15.394,-3.892 15.599,-5.12 0.205,-1.229 34.271,-13.81 38.691,-10.62 2.911,2.101 -6.99,0.424 -16.624,4.834 -1.355,0.62 -35.208,15.207 -38.485,15.821 -3.277,0.615 -9.216,4.506 -11.674,5.12 -2.457,0.615 -6.787,2.615 -6.787,2.615 z"
     id="path568"
     inkscape:connector-curvature="0" />
  <path
     style="fill:#000000;fill-opacity:1"
     d="m 172.613,288.02938 c 0,0 5.2,-0.4 4,1.2 -1.2,1.6 -3.6,0.8 -3.6,0.8 l -0.4,-2 z"
     id="path572"
     inkscape:connector-curvature="0" />
  <path
     style="fill:#000000;fill-opacity:1"
     d="m 165.413,289.62938 c 0,0 5.2,-0.4 4,1.2 -1.2,1.6 -3.6,0.8 -3.6,0.8 l -0.4,-2 z"
     id="path576"
     inkscape:connector-curvature="0" />
  <path
     style="fill:#000000;fill-opacity:1"
     d="m 155.013,291.22938 c 0,0 5.2,-0.4 4,1.2 -1.2,1.6 -3.6,0.8 -3.6,0.8 l -0.4,-2 z"
     id="path580"
     inkscape:connector-curvature="0" />
  <path
     style="fill:#000000;fill-opacity:1"
     d="m 147.413,292.02938 c 0,0 5.2,-0.4 4,1.2 -1.2,1.6 -3.6,0.8 -3.6,0.8 l -0.4,-2 z"
     id="path584"
     inkscape:connector-curvature="0" />
  <path
     style="fill:#000000;fill-opacity:1"
     d="m 185.813,252.42938 c 0,0 4.4,0 3.2,1.6 -1.2,1.6 -4.4,1.2 -4.4,1.2 l 1.2,-2.8 z"
     id="path588"
     inkscape:connector-curvature="0" />
  <path
     style="fill:#000000;fill-opacity:1"
     d="m 175.813,258.02938 c 0,0 6.506,-2.141 4,1.2 -1.2,1.6 -3.6,0.8 -3.6,0.8 l -0.4,-2 z"
     id="path592"
     inkscape:connector-curvature="0" />
  <path
     style="fill:#000000;fill-opacity:1"
     d="m 164.613,262.82938 c 0,0 5.2,-0.4 4,1.2 -1.2,1.6 -3.6,0.8 -3.6,0.8 l -0.4,-2 z"
     id="path596"
     inkscape:connector-curvature="0" />
  <path
     style="fill:#000000;fill-opacity:1"
     d="m 157.013,268.82938 c 0,0 5.2,-0.4 4,1.2 -1.2,1.6 -3.6,0.8 -3.6,0.8 l -0.4,-2 z"
     id="path600"
     inkscape:connector-curvature="0" />
  <path
     style="fill:#000000;fill-opacity:1"
     d="m 150.213,273.62938 c 0,0 5.2,-0.4 4,1.2 -1.2,1.6 -3.6,0.8 -3.6,0.8 l -0.4,-2 z"
     id="path604"
     inkscape:connector-curvature="0" />
  <path
     style="fill:#000000;fill-opacity:1"
     d="m 189.295,280.02638 c 0,0 6.921,-0.532 5.324,1.597 -1.597,2.13 -4.792,1.065 -4.792,1.065 l -0.532,-2.662 z"
     id="path608"
     inkscape:connector-curvature="0" />
  <path
     style="fill:#000000;fill-opacity:1"
     d="m 199.695,275.22638 c 0,0 6.921,-0.532 5.324,1.597 -1.597,2.13 -4.792,1.065 -4.792,1.065 l -0.532,-2.662 z"
     id="path612"
     inkscape:connector-curvature="0" />
  <path
     style="fill:#000000;fill-opacity:1"
     d="m 210.495,270.82638 c 0,0 6.921,-0.532 5.324,1.597 -1.597,2.13 -4.792,1.065 -4.792,1.065 l -0.532,-2.662 z"
     id="path616"
     inkscape:connector-curvature="0" />
  <path
     style="fill:#000000;fill-opacity:1"
     d="m 220.895,266.02638 c 0,0 6.921,-0.532 5.324,1.597 -1.597,2.13 -4.792,1.065 -4.792,1.065 l -0.532,-2.662 z"
     id="path620"
     inkscape:connector-curvature="0" />
  <path
     style="fill:#000000;fill-opacity:1"
     d="m 193.295,248.02638 c 0,0 6.921,-0.532 5.324,1.597 -1.597,2.13 -5.592,1.865 -5.592,1.865 l 0.268,-3.462 z"
     id="path624"
     inkscape:connector-curvature="0" />
  <path
     style="fill:#000000;fill-opacity:1"
     d="m 203.295,244.82638 c 0,0 6.921,-0.532 5.324,1.597 -1.597,2.13 -5.992,1.865 -5.992,1.865 l 0.668,-3.462 z"
     id="path628"
     inkscape:connector-curvature="0" />
  <path
     style="fill:#000000;fill-opacity:1"
     d="m 180.613,284.82938 c 0,0 5.2,-0.4 4,1.2 -1.2,1.6 -3.6,0.8 -3.6,0.8 l -0.4,-2 z"
     id="path632"
     inkscape:connector-curvature="0" />
  <path
     style="fill:#992600;fill-opacity:1"
     d="m 107.413,185.62838 c 0,0 -4.4,8.8 -4.8,12 0,0 0.8,-8.8 2,-10.8 1.2,-2 2.8,-1.2 2.8,-1.2 z"
     id="path636"
     inkscape:connector-curvature="0" />
  <path
     style="fill:#992600;fill-opacity:1"
     d="m 89.013,199.62838 c 0,0 -3.2,14.4 -2.8,17.2 0,0 -1.2,-11.6 -0.8,-12.8 0.4,-1.2 3.6,-4.4 3.6,-4.4 z"
     id="path640"
     inkscape:connector-curvature="0" />
  <path
     style="fill:#cccccc;fill-opacity:1"
     d="m 109.813,125.02838 -0.2,3.2 -2.2,0.2 c 0,0 14.2,12.6 14.8,20.2 0,0 0.8,-8.2 -12.4,-23.6 z"
     id="path644"
     inkscape:connector-curvature="0" />
  <path
     style="fill:#000000;fill-opacity:1"
     d="m 113.797,126.29338 c -0.431,-0.416 -0.212,-1.161 -0.62,-1.421 -0.809,-0.516 1.298,-0.573 1.07,-1.289 -0.383,-1.206 -0.196,-1.227 -0.318,-2.503 -0.057,-0.598 0.531,-2.138 0.916,-2.578 1.446,-1.652 0.122,-4.584 1.762,-6.135 0.304,-0.289 0.68,-0.841 0.965,-1.259 0.659,-0.963 1.843,-1.451 2.793,-2.279 0.318,-0.276 0.117,-1.103 0.686,-1.011 0.714,0.115 1.955,-0.015 1.91,0.826 -0.113,2.12 -1.442,3.84 -2.722,5.508 0.451,0.704 -0.007,1.339 -0.291,1.896 -1.335,2.62 -1.146,5.461 -1.32,8.301 -0.005,0.085 -0.312,0.163 -0.304,0.216 0.353,2.335 0.937,4.534 1.816,6.763 0.366,0.93 0.837,1.825 0.987,2.752 0.111,0.686 0.214,1.519 -0.194,2.224 2.035,2.89 0.726,5.541 1.895,9.072 0.207,0.625 1.899,2.539 1.436,2.378 -2.513,-0.871 -2.625,-1.269 -2.802,-2.022 -0.146,-0.623 -0.476,-2 -0.713,-2.602 -0.064,-0.164 -0.235,-2.048 -0.313,-2.17 -1.513,-2.382 -0.155,-2.206 -1.525,-4.564 -1.428,-0.68 -2.394,-1.784 -3.517,-2.946 -0.198,-0.204 0.945,-0.928 0.764,-1.141 -1.092,-1.289 -2.245,-2.056 -1.909,-3.549 0.155,-0.69 0.292,-1.747 -0.452,-2.467 z"
     id="path648"
     inkscape:connector-curvature="0" />
  <path
     style="fill:#000000;fill-opacity:1"
     d="m 110.213,128.02838 c 0,0 0.4,6.8 2.8,8.4 2.4,1.6 1.2,0.8 -2,-0.4 -3.2,-1.2 -2,-2 -2,-2 0,0 -2.8,0.4 -0.4,2.4 2.4,2 6,4.4 4.4,4.4 -1.6,0 -9.2,-4 -9.2,-6.8 0,-2.8 -1,-6.9 -1,-6.9 0,0 1.1,-0.8 5.9,-0.7 0,0 1.4,0.7 1.5,1.6 z"
     id="path652"
     inkscape:connector-curvature="0" />
  <path
     style="fill:#ffffff;fill-opacity:1;stroke:#000000;stroke-width:0.1"
     d="m 109.413,146.62838 c 0,0 -8.52,-2.791 -27,0.6 0,0 9.031,-2.078 27.8,0.2 10.3,1.25 -0.8,-0.8 -0.8,-0.8 z"
     id="path656"
     inkscape:connector-curvature="0" />
  <path
     style="fill:#ffffff;fill-opacity:1;stroke:#000000;stroke-width:0.1"
     d="m 111.511,146.55738 c 0,0 -8.246,-3.518 -26.951,-1.737 0,0 9.178,-1.289 27.679,2.603 10.154,2.136 -0.728,-0.866 -0.728,-0.866 z"
     id="path660"
     inkscape:connector-curvature="0" />
  <path
     style="fill:#ffffff;fill-opacity:1;stroke:#000000;stroke-width:0.1"
     d="m 113.299,146.65038 c 0,0 -7.962,-4.121 -26.747,-3.736 0,0 9.248,-0.604 27.409,4.654 9.966,2.885 -0.662,-0.918 -0.662,-0.918 z"
     id="path664"
     inkscape:connector-curvature="0" />
  <path
     style="fill:#ffffff;fill-opacity:1;stroke:#000000;stroke-width:0.1"
     d="m 114.569,146.87338 c 0,0 -6.824,-4.307 -23.698,-5.405 0,0 8.339,0.17 24.22,6.279 8.716,3.353 -0.522,-0.874 -0.522,-0.874 z"
     id="path668"
     inkscape:connector-curvature="0" />
  <path
     style="fill:#ffffff;fill-opacity:1;stroke:#000000;stroke-width:0.1"
     d="m 229.853,157.38938 c 0,0 -0.93,0.644 -0.716,-0.537 0.215,-1.181 28.423,-14.351 32.037,-14.101 0,0 -30.248,13.206 -31.321,14.638 z"
     id="path672"
     inkscape:connector-curvature="0" />
  <path
     style="fill:#ffffff;fill-opacity:1;stroke:#000000;stroke-width:0.1"
     d="m 226.459,158.02838 c 0,0 -0.876,0.715 -0.755,-0.479 0.121,-1.194 27.208,-16.539 30.83,-16.573 0,0 -29.117,15.541 -30.075,17.052 z"
     id="path676"
     inkscape:connector-curvature="0" />
  <path
     style="fill:#ffffff;fill-opacity:1;stroke:#000000;stroke-width:0.1"
     d="m 223.173,159.40338 c 0,0 -0.828,0.772 -0.786,-0.428 0.042,-1.199 19.859,-16.696 29.671,-18.57 0,0 -18.03,8.127 -28.885,18.998 z"
     id="path680"
     inkscape:connector-curvature="0" />
  <path
     style="fill:#ffffff;fill-opacity:1;stroke:#000000;stroke-width:0.1"
     d="m 220.297,161.26638 c 0,0 -0.745,0.694 -0.707,-0.385 0.038,-1.08 17.872,-15.027 26.703,-16.713 0,0 -16.226,7.314 -25.996,17.098 z"
     id="path684"
     inkscape:connector-curvature="0" />
  <path
     style="fill:#cccccc;fill-opacity:1"
     d="m 188.613,309.22938 c 0,0 -15.2,-2.4 1.6,-4 0,0 18,-2 22,-7.2 0,0 13.6,-9.2 16.4,-9.6 2.8,-0.4 19.2,-4 19.6,-6.4 0.4,-2.4 6.4,-4.8 8,-4 1.6,0.8 1.6,10 -1.2,10.8 -2.8,0.8 -21.6,8 -28,9.2 -6.4,1.2 -18,8.8 -22.8,10 -4.8,1.2 -15.6,1.2 -15.6,1.2 z"
     id="path688"
     inkscape:connector-curvature="0" />
  <path
     style="fill:#000000;fill-opacity:1"
     d="m 261.613,271.82938 c 0,0 -3,1.6 -4.2,4.2 0,0 -6.4,10.6 -20.6,13.8 0,0 -23,9 -30.8,11 0,0 -13.4,5 -20.8,4.2 0,0 -7,0.2 -0.8,1.8 0,0 20.2,-2 23.6,-3.8 0,0 15.6,-5.2 18.6,-7.8 3,-2.6 21.2,-7.6 23.4,-9.6 2.2,-2 12,-10.4 11.6,-13.8 z"
     id="path692"
     inkscape:connector-curvature="0" />
  <path
     style="fill:#000000;fill-opacity:1"
     d="m 202.895,303.33938 c 0,0 5.229,-0.226 4.076,1.323 -1.153,1.55 -3.601,0.676 -3.601,0.676 l -0.475,-1.999 z"
     id="path696"
     inkscape:connector-curvature="0" />
  <path
     style="fill:#000000;fill-opacity:1"
     d="m 195.693,304.69138 c 0,0 5.228,-0.226 4.076,1.323 -1.153,1.55 -3.601,0.677 -3.601,0.677 l -0.475,-2 z"
     id="path700"
     inkscape:connector-curvature="0" />
  <path
     style="fill:#000000;fill-opacity:1"
     d="m 185.264,305.93938 c 0,0 5.229,-0.227 4.076,1.323 -1.153,1.549 -3.601,0.676 -3.601,0.676 l -0.475,-1.999 z"
     id="path704"
     inkscape:connector-curvature="0" />
  <path
     style="fill:#000000;fill-opacity:1"
     d="m 177.63,306.48338 c 0,0 5.229,-0.226 4.076,1.323 -1.153,1.55 -3.601,0.676 -3.601,0.676 l -0.475,-1.999 z"
     id="path708"
     inkscape:connector-curvature="0" />
  <path
     style="fill:#000000;fill-opacity:1"
     d="m 219.428,295.94138 c 0,0 6.96,-0.301 5.425,1.761 -1.534,2.062 -4.793,0.9 -4.793,0.9 l -0.632,-2.661 z"
     id="path712"
     inkscape:connector-curvature="0" />
  <path
     style="fill:#000000;fill-opacity:1"
     d="m 229.743,291.51638 c 0,0 5.959,-3.301 5.425,1.761 -0.27,2.556 -4.793,0.9 -4.793,0.9 l -0.632,-2.661 z"
     id="path716"
     inkscape:connector-curvature="0" />
  <path
     style="fill:#000000;fill-opacity:1"
     d="m 238.875,288.70238 c 0,0 7.159,-3.701 5.425,1.761 -0.778,2.45 -4.794,0.9 -4.794,0.9 l -0.631,-2.661 z"
     id="path720"
     inkscape:connector-curvature="0" />
  <path
     style="fill:#000000;fill-opacity:1"
     d="m 248.389,283.87738 c 0,0 4.359,-4.901 5.425,1.761 0.406,2.538 -4.793,0.9 -4.793,0.9 l -0.632,-2.661 z"
     id="path724"
     inkscape:connector-curvature="0" />
  <path
     style="fill:#000000;fill-opacity:1"
     d="m 210.847,300.42538 c 0,0 5.228,-0.227 4.076,1.323 -1.153,1.549 -3.602,0.676 -3.602,0.676 l -0.474,-1.999 z"
     id="path728"
     inkscape:connector-curvature="0" />
  <path
     style="fill:#ffffff;fill-opacity:1;stroke:#000000;stroke-width:0.1"
     d="m 246.447,179.03138 c 0,0 -0.726,0.665 -0.727,-0.406 0,-1.07 17.484,-14.334 26.327,-15.718 0,0 -16.099,6.729 -25.6,16.124 z"
     id="path732"
     inkscape:connector-curvature="0" />
  <path
     style="fill:#000000;fill-opacity:1"
     d="m 249.413,242.82838 c 0,0 22.001,22.401 31.201,26.001 0,0 9.2,11.2 5.2,37.2 0,0 -3.2,7.6 -6.4,-13.2 0,0 3.2,-25.2 -8,-9.2 0,0 -8.401,-9.9 -2.001,-9.6 0,0 3.201,2 3.601,0.4 0.4,-1.6 -7.601,-15.2 -24.801,-29.601 -17.2,-14.4 1.2,-2 1.2,-2 z"
     id="path736"
     inkscape:connector-curvature="0" />
  <path
     style="fill:#ffffff;fill-opacity:1;stroke:#000000;stroke-width:0.1"
     d="m 191.013,281.62938 c 0,0 -0.2,-1.8 1.6,-1 1.8,0.8 96.001,7 127.601,31 0,0 -45.2,-23.2 -129.201,-30 z"
     id="path740"
     inkscape:connector-curvature="0" />
  <path
     style="fill:#ffffff;fill-opacity:1;stroke:#000000;stroke-width:0.1"
     d="m 201.413,277.22938 c 0,0 -0.2,-1.8 1.6,-1 1.8,0.8 138.401,-0.2 162.001,32.2 0,0 -22,-25.2 -163.601,-31.2 z"
     id="path744"
     inkscape:connector-curvature="0" />
  <path
     style="fill:#ffffff;fill-opacity:1;stroke:#000000;stroke-width:0.1"
     d="m 213.013,273.22938 c 0,0 -0.2,-1.8 1.6,-1 1.8,0.8 175.201,-12.2 198.801,20.2 0,0 -9.6,-25.6 -200.401,-19.2 z"
     id="path748"
     inkscape:connector-curvature="0" />
  <path
     style="fill:#ffffff;fill-opacity:1;stroke:#000000;stroke-width:0.1"
     d="m 223.013,268.42938 c 0,0 -0.2,-1.8 1.6,-1 1.8,0.8 124.001,-37.801 147.601,-5.4 0,0 -13.4,-24.601 -149.201,6.4 z"
     id="path752"
     inkscape:connector-curvature="0" />
  <path
     style="fill:#ffffff;fill-opacity:1;stroke:#000000;stroke-width:0.1"
     d="m 165.013,291.22938 c 0,0 -0.2,-1.8 1.6,-1 1.8,0.8 19.6,3 21.6,41.8 0,0 -7.2,-42 -23.2,-40.8 z"
     id="path756"
     inkscape:connector-curvature="0" />
  <path
     style="fill:#ffffff;fill-opacity:1;stroke:#000000;stroke-width:0.1"
     d="m 156.213,292.82938 c 0,0 -0.2,-1.8 1.6,-1 1.8,0.8 16,-3.8 13.2,35 0,0 1.2,-35.2 -14.8,-34 z"
     id="path760"
     inkscape:connector-curvature="0" />
  <path
     style="fill:#ffffff;fill-opacity:1;stroke:#000000;stroke-width:0.1"
     d="m 148.213,293.22938 c 0,0 -0.2,-1.8 1.6,-1 1.8,0.8 17.2,1.4 4.8,23.8 0,0 9.6,-24 -6.4,-22.8 z"
     id="path764"
     inkscape:connector-curvature="0" />
  <path
     style="fill:#ffffff;fill-opacity:1;stroke:#000000;stroke-width:0.1"
     d="m 195.539,248.89338 c 0,0 -0.444,1.999 1.105,0.782 16.068,-12.625 48.51,-71.527 104.195,-77.161 0,0 -38.308,-12.11 -105.3,76.379 z"
     id="path768"
     inkscape:connector-curvature="0" />
  <path
     style="fill:#ffffff;fill-opacity:1;stroke:#000000;stroke-width:0.1"
     d="m 206.739,247.09338 c 0,0 -1.363,-1.193 0.505,-1.818 1.868,-0.625 114.31,-73.127 153.595,-65.161 0,0 -27.107,-7.51 -154.1,66.979 z"
     id="path772"
     inkscape:connector-curvature="0" />
  <path
     style="fill:#ffffff;fill-opacity:1;stroke:#000000;stroke-width:0.1"
     d="m 185.898,253.19538 c 0,0 -0.509,1.599 1.202,0.623 8.975,-5.12 12.59,-62.331 56.167,-63.586 0,0 -32.411,-14.714 -57.369,62.963 z"
     id="path776"
     inkscape:connector-curvature="0" />
  <path
     style="fill:#ffffff;fill-opacity:1;stroke:#000000;stroke-width:0.1"
     d="m 165.975,264.22138 c 0,0 -1.077,1.286 0.876,1.032 10.246,-1.332 31.651,-42.603 76.09,-37.524 0,0 -31.966,-14.346 -76.966,36.492 z"
     id="path780"
     inkscape:connector-curvature="0" />
  <path
     style="fill:#ffffff;fill-opacity:1;stroke:#000000;stroke-width:0.1"
     d="m 177.213,258.09538 c 0,0 -0.811,1.469 1.058,0.844 9.799,-3.274 22.883,-47.886 67.471,-51.433 0,0 -34.126,-7.943 -68.529,50.589 z"
     id="path784"
     inkscape:connector-curvature="0" />
  <path
     style="fill:#ffffff;fill-opacity:1;stroke:#000000;stroke-width:0.1"
     d="m 158.935,269.34038 c 0,0 -0.873,1.042 0.709,0.836 8.299,-1.079 25.637,-34.508 61.633,-30.394 0,0 -25.893,-11.62 -62.342,29.558 z"
     id="path788"
     inkscape:connector-curvature="0" />
  <path
     style="fill:#ffffff;fill-opacity:1;stroke:#000000;stroke-width:0.1"
     d="m 151.336,275.24938 c 0,0 -1.005,1.045 0.586,0.927 4.168,-0.309 34.806,-33.388 53.274,-17.886 0,0 -12.015,-18.723 -53.86,16.959 z"
     id="path792"
     inkscape:connector-curvature="0" />
  <path
     style="fill:#ffffff;fill-opacity:1;stroke:#000000;stroke-width:0.1"
     d="m 220.868,243.32638 c 0,0 -1.201,-1.355 0.731,-1.74 1.932,-0.384 122.635,-58.097 160.598,-45.231 0,0 -25.941,-10.874 -161.329,46.971 z"
     id="path796"
     inkscape:connector-curvature="0" />
  <path
     style="fill:#ffffff;fill-opacity:1;stroke:#000000;stroke-width:0.1"
     d="m 187.413,307.62938 c 0,0 -0.2,-1.8 1.6,-1 1.8,0.8 17.2,1.4 4.8,23.8 0,0 9.6,-24 -6.4,-22.8 z"
     id="path800"
     inkscape:connector-curvature="0" />
  <path
     style="fill:#ffffff;fill-opacity:1;stroke:#000000;stroke-width:0.1"
     d="m 197.813,306.02938 c 0,0 -0.2,-1.8 1.6,-1 1.8,0.8 19.6,3 21.6,41.8 0,0 -7.2,-42 -23.2,-40.8 z"
     id="path804"
     inkscape:connector-curvature="0" />
  <path
     style="fill:#ffffff;fill-opacity:1;stroke:#000000;stroke-width:0.1"
     d="m 204.613,304.42938 c 0,0 -0.2,-1.8 1.6,-1 1.8,0.8 26.4,4.2 50,36.6 0,0 -35.6,-36.8 -51.6,-35.6 z"
     id="path808"
     inkscape:connector-curvature="0" />
  <path
     style="fill:#ffffff;fill-opacity:1;stroke:#000000;stroke-width:0.1"
     d="m 212.238,302.40038 c 0,0 -0.437,-1.758 1.453,-1.204 1.89,0.554 22.324,-1.345 60.421,32.831 0,0 -46.175,-34.943 -61.874,-31.627 z"
     id="path812"
     inkscape:connector-curvature="0" />
  <path
     style="fill:#ffffff;fill-opacity:1;stroke:#000000;stroke-width:0.1"
     d="m 222.638,298.00038 c 0,0 -0.437,-1.758 1.453,-1.204 1.89,0.554 36.724,5.055 88.421,40.031 0,0 -74.175,-42.143 -89.874,-38.827 z"
     id="path816"
     inkscape:connector-curvature="0" />
  <path
     style="fill:#ffffff;fill-opacity:1;stroke:#000000;stroke-width:0.1"
     d="m 182.213,286.42938 c 0,0 -0.2,-1.8 1.6,-1 1.8,0.8 55.2,3.4 85.6,30.2 0,0 -34.901,-24.775 -87.2,-29.2 z"
     id="path820"
     inkscape:connector-curvature="0" />
  <path
     style="fill:#ffffff;fill-opacity:1;stroke:#000000;stroke-width:0.1"
     d="m 172.213,290.42938 c 0,0 -0.2,-1.8 1.6,-1 1.8,0.8 26.4,4.2 50,36.6 0,0 -35.6,-36.8 -51.6,-35.6 z"
     id="path824"
     inkscape:connector-curvature="0" />
  <path
     style="fill:#ffffff;fill-opacity:1;stroke:#000000;stroke-width:0.1"
     d="m 233.516,293.39038 c 0,0 -0.565,-1.721 1.361,-1.307 1.926,0.413 36.996,2.349 91.117,33.443 0,0 -77.664,-34.394 -92.478,-32.136 z"
     id="path828"
     inkscape:connector-curvature="0" />
  <path
     style="fill:#ffffff;fill-opacity:1;stroke:#000000;stroke-width:0.1"
     d="m 241.916,290.99038 c 0,0 -0.565,-1.721 1.361,-1.307 1.926,0.413 36.996,2.349 91.117,33.443 0,0 -77.064,-34.794 -92.478,-32.136 z"
     id="path832"
     inkscape:connector-curvature="0" />
  <path
     style="fill:#ffffff;fill-opacity:1;stroke:#000000;stroke-width:0.1"
     d="m 251.516,285.99038 c 0,0 -0.565,-1.721 1.361,-1.307 1.926,0.413 44.996,4.749 134.718,39.043 0,0 -120.665,-40.394 -136.079,-37.736 z"
     id="path836"
     inkscape:connector-curvature="0" />
  <path
     style="fill:#000000;fill-opacity:1"
     d="m 140.213,292.82938 c 0,0 5.2,-0.4 4,1.2 -1.2,1.6 -3.6,0.8 -3.6,0.8 l -0.4,-2 z"
     id="path840"
     inkscape:connector-curvature="0" />
  <path
     style="fill:#000000;fill-opacity:1"
     d="m 171.013,306.82938 c 0,0 5.2,-0.4 4,1.2 -1.2,1.6 -3.6,0.8 -3.6,0.8 l -0.4,-2 z"
     id="path844"
     inkscape:connector-curvature="0" />
  <path
     style="fill:#000000;fill-opacity:1"
     d="m 162.213,306.42938 c 0,0 5.2,-0.4 4,1.2 -1.2,1.6 -3.6,0.8 -3.6,0.8 l -0.4,-2 z"
     id="path848"
     inkscape:connector-curvature="0" />
  <path
     style="fill:#000000;fill-opacity:1"
     d="m 66.844,294.61038 c 0,0 5.045,1.323 3.387,2.442 -1.657,1.12 -3.664,-0.422 -3.664,-0.422 l 0.277,-2.02 z"
     id="path852"
     inkscape:connector-curvature="0" />
  <path
     style="fill:#000000;fill-opacity:1"
     d="m 68.844,285.01038 c 0,0 5.045,1.323 3.387,2.442 -1.657,1.12 -3.664,-0.422 -3.664,-0.422 l 0.277,-2.02 z"
     id="path856"
     inkscape:connector-curvature="0" />
  <path
     style="fill:#000000;fill-opacity:1"
     d="m 61.644,280.61038 c 0,0 5.045,1.323 3.387,2.442 -1.657,1.12 -3.664,-0.422 -3.664,-0.422 l 0.277,-2.02 z"
     id="path860"
     inkscape:connector-curvature="0" />
  <path
     style="fill:#cccccc;fill-opacity:1"
     d="m 141.413,355.62938 c 0,0 -1.6,0 -5.6,2 -2,0 -13.2,3.6 -18.8,13.6 0,0 12.4,-9.6 24.4,-15.6 z"
     id="path864"
     inkscape:connector-curvature="0" />
  <path
     style="fill:#cccccc;fill-opacity:1"
     d="m 229.129,448.27538 c 0.141,0.258 0.196,0.678 0.488,0.695 0.658,0.04 1.891,0.341 1.766,-0.295 -0.848,-4.306 -1.722,-9.243 -5.855,-11.05 -0.639,-0.279 -2.081,0.134 -2.155,1.018 -0.127,1.524 -0.244,2.873 0.065,4.339 0.3,1.421 2.458,1.431 3.375,0.047 0.936,1.672 1.368,3.515 2.316,5.246 z"
     id="path868"
     inkscape:connector-curvature="0" />
  <path
     style="fill:#cccccc;fill-opacity:1"
     d="m 218.051,453.00938 c 0.748,1.413 0.621,3.272 2.036,3.835 0.74,0.294 2.59,-0.681 2.172,-1.755 -0.802,-2.061 -1.19,-4.3 -2.579,-6.111 -0.2,-0.262 0.04,-0.795 -0.12,-1.123 -0.594,-1.22 -1.739,-1.955 -3.147,-1.626 -1.115,2.203 0.033,4.332 1.555,6.041 0.136,0.152 -0.03,0.528 0.083,0.739 z"
     id="path872"
     inkscape:connector-curvature="0" />
  <path
     style="fill:#cccccc;fill-opacity:1"
     d="m 178.449,447.81938 c -0.108,-0.377 -0.146,-0.84 0.019,-1.161 0.531,-1.033 1.324,-2.155 0.987,-3.177 -0.348,-1.056 -1.464,-0.874 -2.114,-0.305 -1.135,0.994 -1.184,2.82 -1.875,4.179 -0.196,0.386 -0.145,0.959 -0.586,1.35 -0.474,0.421 -0.914,1.945 -0.818,2.516 0.053,0.313 -0.13,10.221 0.092,9.958 0.619,-0.733 3.669,-10.467 3.738,-11.359 0.057,-0.731 0.789,-1.196 0.557,-2.001 z"
     id="path876"
     inkscape:connector-curvature="0" />
  <path
     style="fill:#cccccc;fill-opacity:1"
     d="m 152.811,441.02738 c 2.634,-2.499 5.424,-5.46 4.982,-9.172 -0.116,-0.976 -1.891,-0.449 -2.078,0.397 -0.802,3.625 -2.841,6.286 -5.409,8.678 -2.196,2.047 -4.058,8.391 -4.293,8.899 3.697,-5.256 5.954,-8.002 6.798,-8.802 z"
     id="path880"
     inkscape:connector-curvature="0" />
  <path
     style="fill:#cccccc;fill-opacity:1"
     d="m 139.237,435.06338 c 0.523,-0.37 0.221,-0.861 0.438,-1.193 0.953,-1.458 2.254,-2.704 2.272,-4.442 0.003,-0.277 -0.375,-0.586 -0.71,-0.362 -0.277,0.184 -0.619,0.314 -0.727,0.444 -2.03,2.449 -3.43,5.12 -4.873,7.932 -0.183,0.357 -1.327,4.848 -1.014,4.959 0.239,0.085 1.959,-4.096 2.169,-4.21 1.263,-0.686 1.275,-2.301 2.445,-3.128 z"
     id="path884"
     inkscape:connector-curvature="0" />
  <path
     style="fill:#cccccc;fill-opacity:1"
     d="m 155.97,454.60738 c 0.444,-0.869 2.02,-2.071 1.907,-2.96 -0.118,-0.928 0.35,-2.371 -0.562,-1.683 -1.257,0.948 -4.706,2.297 -4.976,8.105 -0.026,0.571 2.948,-2.122 3.631,-3.462 z"
     id="path888"
     inkscape:connector-curvature="0" />
  <path
     style="fill:#cccccc;fill-opacity:1"
     d="m 170.413,437.42938 c 0.4,-0.668 1.108,-0.195 1.567,-0.458 0.648,-0.372 1.259,-0.93 1.551,-1.579 0.97,-2.149 2.739,-3.969 2.882,-6.363 -1.491,-1.405 -2.17,0.635 -2.8,1.6 -1.323,-1.647 -2.322,0.227 -3.622,0.746 -0.07,0.028 -0.283,-0.319 -0.358,-0.292 -1.177,0.44 -1.857,1.521 -2.855,2.302 -0.171,0.134 -0.576,-0.046 -0.723,0.09 -0.652,0.603 -1.625,0.928 -1.905,1.61 -1.11,2.707 -4.25,4.802 -6.137,12.344 0.381,0.909 4.512,-6.642 4.999,-7.34 0.836,-1.196 0.954,1.661 2.23,0.995 0.051,-0.027 0.237,0.211 0.371,0.345 0.194,-0.28 0.412,-0.509 0.8,-0.4 0,-0.4 -0.134,-0.956 0.067,-1.115 1.237,-0.977 1.153,-2.045 1.933,-3.285 0.458,0.789 1.519,0.07 2,0.8 z"
     id="path892"
     inkscape:connector-curvature="0" />
  <path
     style="fill:#cccccc;fill-opacity:1"
     d="m 230.213,491.82938 c 0,0 7.4,-20.4 3,-31.6 0,0 11.4,21.6 6.8,32.8 0,0 -0.4,-10.4 -4.4,-15.4 0,0 -4,12.8 -5.4,14.2 z"
     id="path896"
     inkscape:connector-curvature="0" />
  <path
     style="fill:#cccccc;fill-opacity:1"
     d="m 215.413,489.22938 c 0,0 5.4,-8.8 -2.6,-27.2 0,0 -0.8,20.4 -7.6,31.4 0,0 14.2,-20.2 10.2,-4.2 z"
     id="path900"
     inkscape:connector-curvature="0" />
  <path
     style="fill:#cccccc;fill-opacity:1"
     d="m 205.413,487.22938 c 0,0 -0.2,-20 0.2,-23 0,0 -3.8,16.6 -14,26.2 0,0 14.4,-12 13.8,-3.2 z"
     id="path904"
     inkscape:connector-curvature="0" />
  <path
     style="fill:#cccccc;fill-opacity:1"
     d="m 195.813,455.22938 c 0,0 6,13.6 -4,32 0,0 6.4,-12.2 1.6,-19.2 0,0 2.6,-3.4 2.4,-12.8 z"
     id="path908"
     inkscape:connector-curvature="0" />
  <path
     style="fill:#cccccc;fill-opacity:1"
     d="m 176.613,486.82938 c 0,0 -1,-15.6 0.8,-17.8 0,0 0.2,-6.4 -0.2,-7.4 0,0 4,-6.2 4.2,1.2 0,0 1.4,7.8 4.2,12.4 0,0 3.6,5.4 3.4,11.8 0,0 -10,-30.2 -12.4,-0.2 z"
     id="path912"
     inkscape:connector-curvature="0" />
  <path
     style="fill:#cccccc;fill-opacity:1"
     d="m 173.013,459.22938 c 0,0 -6.6,10.8 -8.4,29.8 0,0 -1.4,-6.2 2.4,-20.6 0,0 4.2,-15.4 6,-9.2 z"
     id="path916"
     inkscape:connector-curvature="0" />
  <path
     style="fill:#cccccc;fill-opacity:1"
     d="m 151.213,479.02938 c 0,0 5,-5.4 6.4,-10.4 0,0 3.6,-15.8 -2.8,-7.2 0,0 0.2,8 -8,15.4 0,0 4.8,-2.4 4.4,2.2 z"
     id="path920"
     inkscape:connector-curvature="0" />
  <path
     style="fill:#cccccc;fill-opacity:1"
     d="m 145.413,474.02938 c 0,0 3.4,-17.4 4.2,-18.2 0,0 1.8,-3.4 -1,-0.2 0,0 -8.8,19.2 -12.8,25.8 0,0 8,-9.2 9.6,-7.4 z"
     id="path924"
     inkscape:connector-curvature="0" />
  <path
     style="fill:#cccccc;fill-opacity:1"
     d="m 139.613,457.42938 c 0,0 11.6,-22.4 -10.2,3.4 0,0 11,-9.8 10.2,-3.4 z"
     id="path928"
     inkscape:connector-curvature="0" />
  <path
     style="fill:#cccccc;fill-opacity:1"
     d="m 124.213,442.82938 c 0,0 4.8,-18.8 7.4,-18.6 0,0 8.2,-9 1.6,1.6 0,0 -6,9.6 -5.4,19.4 0,0 -0.6,-9.6 -3.6,-2.4 z"
     id="path932"
     inkscape:connector-curvature="0" />
  <path
     style="fill:#cccccc;fill-opacity:1"
     d="m 454.513,431.42838 c 0,0 -12,-10 -14.5,-13.5 0,0 13.5,18.5 13.5,25.5 0,0 2.5,-7.5 1,-12 z"
     id="path936"
     inkscape:connector-curvature="0" />
  <path
     style="fill:#cccccc;fill-opacity:1"
     d="m 460.013,409.42838 c 0,0 -21,-15 -24.5,-22.5 0,0 26.5,29.5 26.5,34 0,0 0.5,-9 -2,-11.5 z"
     id="path940"
     inkscape:connector-curvature="0" />
  <path
     style="fill:#cccccc;fill-opacity:1"
     d="m 477.013,255.42838 c 0,0 -12,-8 -13.5,-6 0,0 10.5,6.5 13,15 0,0 -1.5,-9 0.5,-9 z"
     id="path944"
     inkscape:connector-curvature="0" />
  <path
     style="fill:#cccccc;fill-opacity:1"
     d="m 485.513,335.92838 -17.5,-12 c 0,0 19,17 19.5,21 l -2,-9 z"
     id="path948"
     inkscape:connector-curvature="0" />
  <path
     style="fill:none;stroke:#000000"
     d="m 94.763,313.42838 22,4.75"
     id="path952"
     inkscape:connector-curvature="0" />
  <path
     style="fill:none;stroke:#000000"
     d="m 145.013,475.42838 c 0,0 -0.5,-3.5 -9.5,7"
     id="path956"
     inkscape:connector-curvature="0" />
  <path
     style="fill:none;stroke:#000000"
     d="m 150.513,480.42838 c 0,0 2,-6.5 -4.5,-2"
     id="path960"
     inkscape:connector-curvature="0" />
  <path
     style="fill:none;stroke:#000000"
     d="m 204.513,488.92838 c 0,0 1.5,-11 -10,2"
     id="path964"
     inkscape:connector-curvature="0" />
</svg>
